# Blender v2.69 (sub 0) OBJ File: 'untitled.blend'
# www.blender.org
mtllib back.mtl
o Cube.004
v -12.000000 0.150700 -19.365276
v -12.000000 0.150700 -19.965275
v 12.000000 0.150700 -19.965275
v 12.000000 0.150700 -19.365276
v -12.000000 6.150700 -19.365276
v -12.000000 6.150700 -19.965275
v 12.000000 6.150700 -19.965275
v 12.000000 6.150700 -19.365276
vt 0.646972 0.443010
vt 1.000000 0.443010
vt 0.646972 0.000000
vt 0.353028 0.443010
vt 0.706056 0.443010
vt 0.353028 0.000000
vt 0.293944 0.443010
vt 0.000000 0.443010
vt 0.353028 0.556990
vt 0.353028 1.000000
vt 0.706056 0.556990
vt 0.000000 0.556990
vt 1.000000 0.000000
vt 0.706056 0.000000
vt 0.293944 0.000000
vt 0.000000 0.000000
vt 0.706056 1.000000
vt 0.000000 1.000000
vn -1.000000 0.000000 0.000000
vn 0.000000 0.000000 -1.000000
vn 1.000000 0.000000 0.000000
vn 0.000000 0.000000 1.000000
vn 0.000000 -1.000000 0.000000
vn 0.000000 1.000000 0.000000
usemtl None
s off
f 5/1/1 6/2/1 1/3/1
f 6/4/2 7/5/2 2/6/2
f 7/1/3 8/7/3 3/3/3
f 8/4/4 5/8/4 4/6/4
f 1/9/5 2/10/5 4/11/5
f 8/9/6 7/10/6 5/12/6
f 6/2/1 2/13/1 1/3/1
f 7/5/2 3/14/2 2/6/2
f 8/7/3 4/15/3 3/3/3
f 5/8/4 1/16/4 4/6/4
f 2/10/5 3/17/5 4/11/5
f 7/10/6 6/18/6 5/12/6
