# Blender v2.69 (sub 0) OBJ File: ''
# www.blender.org
mtllib cheek.mtl
o Cylinder
v 0.000000 -1.000000 -1.600000
v 0.000000 1.000000 -1.600000
v 0.312145 -1.000000 -1.569256
v 0.312145 1.000000 -1.569256
v 0.612294 -1.000000 -1.478207
v 0.612294 1.000000 -1.478207
v 0.888912 -1.000000 -1.330351
v 0.888912 1.000000 -1.330351
v 1.131371 -1.000000 -1.131371
v 1.131371 1.000000 -1.131371
v 1.330351 -1.000000 -0.888912
v 1.330351 1.000000 -0.888912
v 1.478207 -1.000000 -0.612293
v 1.478207 1.000000 -0.612293
v 1.569256 -1.000000 -0.312145
v 1.569256 1.000000 -0.312145
v 1.600000 -1.000000 -0.000000
v 1.600000 1.000000 0.000000
v 1.569257 -1.000000 0.312144
v 1.569257 1.000000 0.312144
v 1.478207 -1.000000 0.612293
v 1.478207 1.000000 0.612293
v 1.330351 -1.000000 0.888912
v 1.330351 1.000000 0.888912
v 1.131371 -1.000000 1.131371
v 1.131371 1.000000 1.131371
v 0.888912 -1.000000 1.330351
v 0.888912 1.000000 1.330351
v 0.612293 -1.000000 1.478207
v 0.612293 1.000000 1.478207
v 0.312144 -1.000000 1.569257
v 0.312144 1.000000 1.569257
v -0.000001 -1.000000 1.600000
v -0.000001 1.000000 1.600000
v -0.312145 -1.000000 1.569256
v -0.312145 1.000000 1.569256
v -0.612294 -1.000000 1.478207
v -0.612294 1.000000 1.478207
v -0.888913 -1.000000 1.330351
v -0.888913 1.000000 1.330351
v -1.131372 -1.000000 1.131370
v -1.131372 1.000000 1.131370
v -1.330352 -1.000000 0.888911
v -1.330352 1.000000 0.888911
v -1.478208 -1.000000 0.612292
v -1.478208 1.000000 0.612292
v -1.569257 -1.000000 0.312143
v -1.569257 1.000000 0.312143
v -1.600000 -1.000000 -0.000002
v -1.600000 1.000000 -0.000002
v -1.569256 -1.000000 -0.312146
v -1.569256 1.000000 -0.312146
v -1.478207 -1.000000 -0.612295
v -1.478207 1.000000 -0.612295
v -1.330350 -1.000000 -0.888914
v -1.330350 1.000000 -0.888914
v -1.131369 -1.000000 -1.131372
v -1.131369 1.000000 -1.131372
v -0.888911 -1.000000 -1.330353
v -0.888911 1.000000 -1.330353
v -0.612291 -1.000000 -1.478208
v -0.312142 -1.000000 -1.569257
v -0.312142 1.000000 -1.569257
v -0.612291 1.000000 -1.478208
vt 0.982012 0.513153
vt 0.637135 0.513153
vt 0.982012 0.479349
vt 0.637135 0.479349
vt 0.982012 0.446194
vt 0.637135 0.446194
vt 0.982012 0.414963
vt 0.637135 0.414964
vt 0.982012 0.386857
vt 0.637135 0.386857
vt 0.982012 0.362954
vt 0.984480 0.389776
vt 0.984480 0.734653
vt 0.956374 0.389776
vt 0.956374 0.734653
vt 0.925143 0.389776
vt 0.925143 0.734653
vt 0.891988 0.389776
vt 0.891988 0.734653
vt 0.858184 0.389776
vt 0.858184 0.734653
vt 0.825030 0.389776
vt 0.825030 0.734653
vt 0.793799 0.389776
vt 0.793799 0.734653
vt 0.765692 0.389776
vt 0.982012 0.331915
vt 0.637135 0.331915
vt 0.982012 0.303808
vt 0.637135 0.303808
vt 0.982012 0.272577
vt 0.637135 0.272577
vt 0.982012 0.239422
vt 0.637135 0.239422
vt 0.982012 0.205618
vt 0.637135 0.205618
vt 0.982012 0.172464
vt 0.637135 0.172464
vt 0.982012 0.141233
vt 0.637135 0.141233
vt 0.982012 0.113126
vt 0.637135 0.113126
vt 0.982012 0.089223
vt 0.637135 0.660587
vt 0.982012 0.660587
vt 0.637135 0.688693
vt 0.982012 0.688693
vt 0.637135 0.719924
vt 0.982012 0.719924
vt 0.637135 0.753079
vt 0.982012 0.753079
vt 0.637135 0.786883
vt 0.982012 0.786883
vt 0.637135 0.820037
vt 0.982012 0.820037
vt 0.637135 0.851268
vt 0.982012 0.851268
vt 0.637135 0.879375
vt 0.982012 0.879375
vt 0.637135 0.903278
vt 0.982012 0.629547
vt 0.637135 0.629548
vt 0.982012 0.605644
vt 0.637135 0.605644
vt 0.982012 0.577538
vt 0.355573 0.908578
vt 0.309476 0.899408
vt 0.402574 0.908578
vt 0.637135 0.546307
vt 0.982012 0.546307
vt 0.637135 0.577538
vt 0.213567 0.458812
vt 0.179763 0.458812
vt 0.246721 0.452217
vt 0.637135 0.362954
vt 0.765692 0.734653
vt 0.637135 0.089223
vt 0.982012 0.903278
vt 0.266052 0.881422
vt 0.226972 0.855308
vt 0.193737 0.822074
vt 0.167625 0.782994
vt 0.149638 0.739571
vt 0.140469 0.693473
vt 0.140468 0.646471
vt 0.149638 0.600374
vt 0.167624 0.556950
vt 0.193737 0.517870
vt 0.226972 0.484636
vt 0.590523 0.556950
vt 0.531175 0.484636
vt 0.564410 0.517870
vt 0.492095 0.458524
vt 0.448672 0.899408
vt 0.531175 0.855308
vt 0.492095 0.881422
vt 0.564410 0.822074
vt 0.402574 0.431367
vt 0.448672 0.440536
vt 0.608509 0.600374
vt 0.355573 0.431368
vt 0.309476 0.440536
vt 0.266052 0.458524
vt 0.617679 0.646471
vt 0.617679 0.693473
vt 0.608509 0.739570
vt 0.590523 0.782994
vt 0.146609 0.452217
vt 0.115378 0.439281
vt 0.087271 0.420500
vt 0.063368 0.396597
vt 0.044588 0.368490
vt 0.031651 0.337260
vt 0.025057 0.304105
vt 0.025056 0.270301
vt 0.031651 0.237147
vt 0.044587 0.205916
vt 0.063368 0.177809
vt 0.087271 0.153906
vt 0.115378 0.135126
vt 0.348743 0.205916
vt 0.306059 0.153906
vt 0.329962 0.177809
vt 0.277952 0.135126
vt 0.246721 0.122189
vt 0.213567 0.115595
vt 0.361679 0.237147
vt 0.368274 0.270301
vt 0.329962 0.396597
vt 0.361679 0.337260
vt 0.348743 0.368490
vt 0.368274 0.304105
vt 0.306059 0.420500
vt 0.179763 0.115595
vt 0.277952 0.439281
vt 0.146609 0.122189
vn 0.098019 0.000000 -0.995185
vn 0.290284 0.000000 -0.956941
vn 0.471398 0.000000 -0.881921
vn 0.634392 0.000000 -0.773012
vn 0.773012 0.000000 -0.634392
vn 0.881921 0.000000 -0.471397
vn 0.956940 0.000000 -0.290285
vn 0.995185 0.000000 -0.098019
vn 0.995185 -0.000000 0.098016
vn 0.956940 -0.000000 0.290287
vn 0.881921 -0.000000 0.471397
vn 0.773012 -0.000000 0.634391
vn 0.634391 -0.000000 0.773012
vn 0.471397 -0.000000 0.881921
vn 0.290287 -0.000000 0.956940
vn 0.098016 -0.000000 0.995185
vn -0.098019 -0.000000 0.995185
vn -0.290284 -0.000000 0.956941
vn -0.471397 -0.000000 0.881921
vn -0.634393 -0.000000 0.773010
vn -0.773012 -0.000000 0.634392
vn -0.881921 -0.000000 0.471397
vn -0.956940 0.000000 0.290284
vn -0.995185 0.000000 0.098015
vn -0.995185 0.000000 -0.098019
vn -0.956941 0.000000 -0.290284
vn -0.881920 0.000000 -0.471399
vn -0.773009 0.000000 -0.634395
vn -0.634395 0.000000 -0.773009
vn -0.471393 0.000000 -0.881923
vn 0.000000 1.000000 0.000000
vn -0.098017 0.000000 -0.995185
vn -0.290284 0.000000 -0.956941
vn 0.000000 -1.000000 0.000000
vn 0.634391 0.000000 -0.773012
vn 0.773012 0.000000 -0.634391
vn 0.773012 -0.000000 0.634392
vn 0.634392 -0.000000 0.773012
vn 0.098015 -0.000000 0.995185
vn 0.000000 1.000000 -0.000002
vn 0.000000 1.000000 0.000001
vn 0.000000 1.000000 -0.000001
vn -0.000001 1.000000 -0.000002
vn 0.000001 1.000000 0.000001
vn 0.000000 1.000000 0.000003
vn -0.098016 0.000000 -0.995185
vn -0.290285 0.000000 -0.956940
vn 0.000000 -1.000000 0.000002
vn 0.000000 -1.000000 -0.000002
vn 0.000000 -1.000000 0.000001
vn 0.000000 -1.000000 -0.000001
vn -0.000002 -1.000000 0.000003
vn 0.000001 -1.000000 -0.000002
usemtl Material.006
s off
f 1/1/1 2/2/1 3/3/1
f 3/3/2 4/4/2 5/5/2
f 5/5/3 6/6/3 7/7/3
f 7/7/4 8/8/4 9/9/4
f 9/9/5 10/10/5 11/11/5
f 11/12/6 12/13/6 13/14/6
f 13/14/7 14/15/7 15/16/7
f 15/16/8 16/17/8 17/18/8
f 17/18/9 18/19/9 19/20/9
f 19/20/10 20/21/10 21/22/10
f 21/22/11 22/23/11 23/24/11
f 23/24/12 24/25/12 25/26/12
f 25/27/13 26/28/13 27/29/13
f 27/29/14 28/30/14 29/31/14
f 29/31/15 30/32/15 31/33/15
f 31/33/16 32/34/16 33/35/16
f 33/35/17 34/36/17 35/37/17
f 35/37/18 36/38/18 37/39/18
f 37/39/19 38/40/19 39/41/19
f 39/41/20 40/42/20 41/43/20
f 41/44/21 42/45/21 43/46/21
f 43/46/22 44/47/22 45/48/22
f 45/48/23 46/49/23 47/50/23
f 47/50/24 48/51/24 49/52/24
f 49/52/25 50/53/25 51/54/25
f 51/54/26 52/55/26 53/56/26
f 53/56/27 54/57/27 55/58/27
f 55/58/28 56/59/28 57/60/28
f 57/61/29 58/62/29 59/63/29
f 59/63/30 60/64/30 61/65/30
f 4/66/31 2/67/31 6/68/31
f 63/69/32 1/1/32 62/70/32
f 61/65/33 64/71/33 62/70/33
f 1/72/34 3/73/34 62/74/34
f 2/2/1 4/4/1 3/3/1
f 4/4/2 6/6/2 5/5/2
f 6/6/3 8/8/3 7/7/3
f 8/8/35 10/10/35 9/9/35
f 10/10/36 12/75/36 11/11/36
f 12/13/6 14/15/6 13/14/6
f 14/15/7 16/17/7 15/16/7
f 16/17/8 18/19/8 17/18/8
f 18/19/9 20/21/9 19/20/9
f 20/21/10 22/23/10 21/22/10
f 22/23/11 24/25/11 23/24/11
f 24/25/37 26/76/37 25/26/37
f 26/28/38 28/30/38 27/29/38
f 28/30/14 30/32/14 29/31/14
f 30/32/15 32/34/15 31/33/15
f 32/34/39 34/36/39 33/35/39
f 34/36/17 36/38/17 35/37/17
f 36/38/18 38/40/18 37/39/18
f 38/40/19 40/42/19 39/41/19
f 40/42/20 42/77/20 41/43/20
f 42/45/21 44/47/21 43/46/21
f 44/47/22 46/49/22 45/48/22
f 46/49/23 48/51/23 47/50/23
f 48/51/24 50/53/24 49/52/24
f 50/53/25 52/55/25 51/54/25
f 52/55/26 54/57/26 53/56/26
f 54/57/27 56/59/27 55/58/27
f 56/59/28 58/78/28 57/60/28
f 58/62/29 60/64/29 59/63/29
f 60/64/30 64/71/30 61/65/30
f 2/67/40 63/79/40 6/68/40
f 63/79/31 64/80/31 6/68/31
f 64/80/41 60/81/41 6/68/41
f 60/81/42 58/82/42 6/68/42
f 58/82/42 56/83/42 6/68/42
f 56/83/31 54/84/31 6/68/31
f 54/84/41 52/85/41 6/68/41
f 52/85/31 50/86/31 6/68/31
f 50/86/41 48/87/41 6/68/41
f 48/87/41 46/88/41 6/68/41
f 46/88/31 44/89/31 6/68/31
f 26/90/31 30/91/31 28/92/31
f 26/90/42 32/93/42 30/91/42
f 8/94/43 12/95/43 10/96/43
f 8/94/44 14/97/44 12/95/44
f 6/68/31 14/97/31 8/94/31
f 6/68/31 44/89/31 14/97/31
f 32/93/45 36/98/45 34/99/45
f 26/90/31 36/98/31 32/93/31
f 24/100/41 36/98/41 26/90/41
f 24/100/31 38/101/31 36/98/31
f 24/100/31 40/102/31 38/101/31
f 42/103/31 40/102/31 24/100/31
f 44/89/41 42/103/41 24/100/41
f 44/89/31 24/100/31 22/104/31
f 44/89/31 22/104/31 20/105/31
f 44/89/31 20/105/31 18/106/31
f 14/97/31 44/89/31 16/107/31
f 44/89/31 18/106/31 16/107/31
f 2/2/46 1/1/46 63/69/46
f 64/71/47 63/69/47 62/70/47
f 3/73/48 5/108/48 62/74/48
f 5/108/49 7/109/49 62/74/49
f 7/109/50 9/110/50 62/74/50
f 9/110/51 11/111/51 62/74/51
f 11/111/50 13/112/50 62/74/50
f 13/112/51 15/113/51 62/74/51
f 15/113/34 17/114/34 62/74/34
f 17/114/34 19/115/34 62/74/34
f 19/115/34 21/116/34 62/74/34
f 21/116/34 23/117/34 62/74/34
f 23/117/34 25/118/34 62/74/34
f 25/118/34 27/119/34 29/120/34
f 62/74/34 25/118/34 29/120/34
f 45/121/52 41/122/52 43/123/52
f 45/121/51 39/124/51 41/122/51
f 45/121/34 37/125/34 39/124/34
f 45/121/34 35/126/34 37/125/34
f 47/127/51 35/126/51 45/121/51
f 49/128/34 35/126/34 47/127/34
f 57/129/53 53/130/53 55/131/53
f 57/129/50 51/132/50 53/130/50
f 59/133/51 51/132/51 57/129/51
f 59/133/34 49/128/34 51/132/34
f 59/133/34 35/126/34 49/128/34
f 59/133/34 33/134/34 35/126/34
f 61/135/34 62/74/34 29/120/34
f 61/135/34 29/120/34 31/136/34
f 59/133/34 61/135/34 33/134/34
f 61/135/34 31/136/34 33/134/34
