# Blender v2.69 (sub 0) OBJ File: ''
# www.blender.org
mtllib divider.mtl
o Cube.001_Cube.005
v 8.837711 -0.147023 20.050671
v 8.837711 -0.147023 -9.949330
v 9.237711 -0.147023 -9.949330
v 9.237711 -0.147023 20.050671
v 8.837711 1.852977 20.050671
v 8.837711 1.852977 -9.949330
v 9.237711 1.852977 -9.949330
v 9.237711 1.852977 20.050671
vt 0.489191 0.488239
vt 0.978382 0.488239
vt 0.489191 0.000000
vt 0.510809 0.488239
vt 1.000000 0.488239
vt 0.510809 0.000000
vt 0.000000 0.488239
vt 0.021618 0.488239
vt 0.510809 0.511761
vt 0.510809 1.000000
vt 1.000000 0.511761
vt 0.021618 0.511761
vt 0.978382 0.000000
vt 1.000000 0.000000
vt 0.000000 0.000000
vt 0.021618 0.000000
vt 1.000000 1.000000
vt 0.021618 1.000000
vn -1.000000 0.000000 0.000000
vn 0.000000 0.000000 -1.000000
vn 1.000000 0.000000 0.000000
vn 0.000000 0.000000 1.000000
vn 0.000000 -1.000000 0.000000
vn 0.000000 1.000000 0.000000
usemtl None
s off
f 5/1/1 6/2/1 1/3/1
f 6/4/2 7/5/2 2/6/2
f 7/1/3 8/7/3 3/3/3
f 8/4/4 5/8/4 4/6/4
f 1/9/5 2/10/5 4/11/5
f 8/9/6 7/10/6 5/12/6
f 6/2/1 2/13/1 1/3/1
f 7/5/2 3/14/2 2/6/2
f 8/7/3 4/15/3 3/3/3
f 5/8/4 1/16/4 4/6/4
f 2/10/5 3/17/5 4/11/5
f 7/10/6 6/18/6 5/12/6
