# Blender v2.69 (sub 0) OBJ File: ''
# www.blender.org
mtllib eye.mtl
o Cylinder
v 0.000000 -1.000000 -1.000000
v 0.000000 1.000000 -1.000000
v 0.195090 -1.000000 -0.980785
v 0.195090 1.000000 -0.980785
v 0.382683 -1.000000 -0.923880
v 0.382683 1.000000 -0.923880
v 0.555570 -1.000000 -0.831470
v 0.555570 1.000000 -0.831470
v 0.707107 -1.000000 -0.707107
v 0.707107 1.000000 -0.707107
v 0.831470 -1.000000 -0.555570
v 0.831470 1.000000 -0.555570
v 0.923880 -1.000000 -0.382683
v 0.923880 1.000000 -0.382683
v 0.980785 -1.000000 -0.195090
v 0.980785 1.000000 -0.195090
v 1.000000 -1.000000 -0.000000
v 1.000000 1.000000 -0.000000
v 0.980785 -1.000000 0.195090
v 0.980785 1.000000 0.195090
v 0.923880 -1.000000 0.382683
v 0.923880 1.000000 0.382683
v 0.831470 -1.000000 0.555570
v 0.831470 1.000000 0.555570
v 0.707107 -1.000000 0.707107
v 0.707107 1.000000 0.707107
v 0.555570 -1.000000 0.831470
v 0.555570 1.000000 0.831470
v 0.382683 -1.000000 0.923880
v 0.382683 1.000000 0.923880
v 0.195090 -1.000000 0.980785
v 0.195090 1.000000 0.980785
v -0.000000 -1.000000 1.000000
v -0.000000 1.000000 1.000000
v -0.195091 -1.000000 0.980785
v -0.195091 1.000000 0.980785
v -0.382684 -1.000000 0.923879
v -0.382684 1.000000 0.923879
v -0.555571 -1.000000 0.831469
v -0.555571 1.000000 0.831469
v -0.707107 -1.000000 0.707106
v -0.707107 1.000000 0.707106
v -0.831470 -1.000000 0.555570
v -0.831470 1.000000 0.555570
v -0.923880 -1.000000 0.382683
v -0.923880 1.000000 0.382683
v -0.980785 -1.000000 0.195089
v -0.980785 1.000000 0.195089
v -1.000000 -1.000000 -0.000001
v -1.000000 1.000000 -0.000001
v -0.980785 -1.000000 -0.195091
v -0.980785 1.000000 -0.195091
v -0.923879 -1.000000 -0.382684
v -0.923879 1.000000 -0.382684
v -0.831469 -1.000000 -0.555571
v -0.831469 1.000000 -0.555571
v -0.707106 -1.000000 -0.707108
v -0.707106 1.000000 -0.707108
v -0.555569 -1.000000 -0.831470
v -0.555569 1.000000 -0.831470
v -0.382682 -1.000000 -0.923880
v -0.382682 1.000000 -0.923880
v -0.195089 -1.000000 -0.980786
v -0.195089 1.000000 -0.980786
vt 0.734653 0.539975
vt 0.389776 0.539975
vt 0.734653 0.506171
vt 0.389776 0.506171
vt 0.734653 0.473016
vt 0.389776 0.473016
vt 0.734653 0.441785
vt 0.389776 0.441786
vt 0.734653 0.413679
vt 0.389776 0.413679
vt 0.734653 0.389776
vt 0.984480 0.389776
vt 0.984480 0.734653
vt 0.956374 0.389776
vt 0.956374 0.734653
vt 0.925143 0.389776
vt 0.925143 0.734653
vt 0.891988 0.389776
vt 0.891988 0.734653
vt 0.858184 0.389776
vt 0.858184 0.734653
vt 0.825030 0.389776
vt 0.825030 0.734653
vt 0.793799 0.389776
vt 0.793799 0.734653
vt 0.765692 0.389776
vt 0.734653 0.358737
vt 0.389776 0.358737
vt 0.734653 0.330630
vt 0.389776 0.330630
vt 0.734653 0.299399
vt 0.389776 0.299399
vt 0.734653 0.266244
vt 0.389776 0.266244
vt 0.734653 0.232440
vt 0.389776 0.232440
vt 0.734653 0.199286
vt 0.389776 0.199286
vt 0.734653 0.168055
vt 0.389776 0.168055
vt 0.734653 0.139948
vt 0.389776 0.139948
vt 0.734653 0.116045
vt 0.389776 0.687409
vt 0.734653 0.687409
vt 0.389776 0.715515
vt 0.734653 0.715515
vt 0.389776 0.746746
vt 0.734653 0.746746
vt 0.389776 0.779901
vt 0.734653 0.779901
vt 0.389776 0.813705
vt 0.734653 0.813705
vt 0.389776 0.846859
vt 0.734653 0.846859
vt 0.389776 0.878090
vt 0.734653 0.878090
vt 0.389776 0.906197
vt 0.734653 0.906197
vt 0.389776 0.930100
vt 0.734653 0.656369
vt 0.389776 0.656370
vt 0.734653 0.632466
vt 0.389776 0.632466
vt 0.734653 0.604360
vt 0.170226 0.358737
vt 0.137072 0.352142
vt 0.204030 0.358737
vt 0.734653 0.573129
vt 0.389776 0.573129
vt 0.389776 0.604360
vt 0.204030 0.732993
vt 0.170226 0.732993
vt 0.237184 0.726398
vt 0.389776 0.389776
vt 0.765692 0.734653
vt 0.389776 0.116045
vt 0.734653 0.930100
vt 0.105841 0.339206
vt 0.077734 0.320425
vt 0.053831 0.296522
vt 0.035051 0.268415
vt 0.022114 0.237185
vt 0.015520 0.204030
vt 0.015519 0.170226
vt 0.022114 0.137072
vt 0.035050 0.105841
vt 0.053831 0.077734
vt 0.077734 0.053831
vt 0.105841 0.035051
vt 0.137072 0.022114
vt 0.170226 0.015520
vt 0.204030 0.015519
vt 0.237184 0.022114
vt 0.268415 0.035051
vt 0.320425 0.077734
vt 0.296522 0.053831
vt 0.339206 0.105841
vt 0.352142 0.137072
vt 0.358737 0.170226
vt 0.358737 0.204030
vt 0.268415 0.339206
vt 0.320425 0.296522
vt 0.296522 0.320425
vt 0.339206 0.268415
vt 0.352142 0.237184
vt 0.237184 0.352142
vt 0.137072 0.726398
vt 0.105841 0.713462
vt 0.077734 0.694681
vt 0.053831 0.670778
vt 0.035051 0.642671
vt 0.022114 0.611441
vt 0.015520 0.578286
vt 0.015519 0.544482
vt 0.022114 0.511328
vt 0.035050 0.480097
vt 0.053831 0.451990
vt 0.352142 0.611441
vt 0.358737 0.544482
vt 0.358737 0.578286
vt 0.077734 0.428087
vt 0.105841 0.409307
vt 0.204030 0.389776
vt 0.137072 0.396370
vt 0.170226 0.389776
vt 0.296522 0.428087
vt 0.237184 0.396370
vt 0.268415 0.409307
vt 0.352142 0.511328
vt 0.320425 0.451990
vt 0.339206 0.480097
vt 0.268415 0.713462
vt 0.296522 0.694681
vt 0.320425 0.670778
vt 0.339206 0.642671
vn 0.098017 0.000000 -0.995185
vn 0.290285 0.000000 -0.956940
vn 0.471396 0.000000 -0.881921
vn 0.634393 0.000000 -0.773010
vn 0.773010 0.000000 -0.634393
vn 0.881921 0.000000 -0.471397
vn 0.956940 0.000000 -0.290285
vn 0.995185 0.000000 -0.098017
vn 0.995185 0.000000 0.098017
vn 0.956940 0.000000 0.290285
vn 0.881921 0.000000 0.471396
vn 0.773010 0.000000 0.634393
vn 0.634393 0.000000 0.773011
vn 0.471397 0.000000 0.881921
vn 0.290285 0.000000 0.956940
vn 0.098017 0.000000 0.995185
vn -0.098018 0.000000 0.995185
vn -0.290285 0.000000 0.956940
vn -0.471397 0.000000 0.881921
vn -0.634394 0.000000 0.773010
vn -0.773011 0.000000 0.634393
vn -0.881922 0.000000 0.471396
vn -0.956941 0.000000 0.290284
vn -0.995185 0.000000 0.098016
vn -0.995185 0.000000 -0.098018
vn -0.956940 0.000000 -0.290286
vn -0.881921 0.000000 -0.471398
vn -0.773009 0.000000 -0.634395
vn -0.634392 0.000000 -0.773011
vn -0.471395 0.000000 -0.881922
vn 0.000000 1.000000 0.000000
vn -0.098017 0.000000 -0.995185
vn -0.290283 0.000000 -0.956941
vn 0.000000 -1.000000 0.000000
vn 0.471397 0.000000 -0.881921
vn 0.881921 0.000000 -0.471396
vn 0.634394 0.000000 0.773010
vn 0.290284 0.000000 0.956941
vn -0.098017 0.000000 0.995185
vn -0.773010 0.000000 -0.634394
vn 0.000000 1.000000 0.000002
vn 0.000000 1.000000 -0.000001
vn 0.000000 1.000000 0.000001
vn 0.000000 1.000000 -0.000003
vn 0.000000 1.000000 0.000003
vn 0.000000 1.000000 -0.000002
vn -0.098016 0.000000 -0.995185
vn 0.000000 -1.000000 -0.000002
vn 0.000000 -1.000000 0.000001
vn 0.000000 -1.000000 -0.000001
vn 0.000000 -1.000000 0.000004
vn 0.000000 -1.000000 -0.000003
usemtl Material.002
s off
f 1/1/1 2/2/1 3/3/1
f 3/3/2 4/4/2 5/5/2
f 5/5/3 6/6/3 7/7/3
f 7/7/4 8/8/4 9/9/4
f 9/9/5 10/10/5 11/11/5
f 11/12/6 12/13/6 13/14/6
f 13/14/7 14/15/7 15/16/7
f 15/16/8 16/17/8 17/18/8
f 17/18/9 18/19/9 19/20/9
f 19/20/10 20/21/10 21/22/10
f 21/22/11 22/23/11 23/24/11
f 23/24/12 24/25/12 25/26/12
f 25/27/13 26/28/13 27/29/13
f 27/29/14 28/30/14 29/31/14
f 29/31/15 30/32/15 31/33/15
f 31/33/16 32/34/16 33/35/16
f 33/35/17 34/36/17 35/37/17
f 35/37/18 36/38/18 37/39/18
f 37/39/19 38/40/19 39/41/19
f 39/41/20 40/42/20 41/43/20
f 41/44/21 42/45/21 43/46/21
f 43/46/22 44/47/22 45/48/22
f 45/48/23 46/49/23 47/50/23
f 47/50/24 48/51/24 49/52/24
f 49/52/25 50/53/25 51/54/25
f 51/54/26 52/55/26 53/56/26
f 53/56/27 54/57/27 55/58/27
f 55/58/28 56/59/28 57/60/28
f 57/61/29 58/62/29 59/63/29
f 59/63/30 60/64/30 61/65/30
f 4/66/31 2/67/31 6/68/31
f 63/69/32 64/70/32 1/1/32
f 61/65/33 62/71/33 63/69/33
f 1/72/34 3/73/34 63/74/34
f 2/2/1 4/4/1 3/3/1
f 4/4/2 6/6/2 5/5/2
f 6/6/35 8/8/35 7/7/35
f 8/8/4 10/10/4 9/9/4
f 10/10/5 12/75/5 11/11/5
f 12/13/36 14/15/36 13/14/36
f 14/15/7 16/17/7 15/16/7
f 16/17/8 18/19/8 17/18/8
f 18/19/9 20/21/9 19/20/9
f 20/21/10 22/23/10 21/22/10
f 22/23/11 24/25/11 23/24/11
f 24/25/12 26/76/12 25/26/12
f 26/28/37 28/30/37 27/29/37
f 28/30/14 30/32/14 29/31/14
f 30/32/38 32/34/38 31/33/38
f 32/34/16 34/36/16 33/35/16
f 34/36/39 36/38/39 35/37/39
f 36/38/18 38/40/18 37/39/18
f 38/40/19 40/42/19 39/41/19
f 40/42/20 42/77/20 41/43/20
f 42/45/21 44/47/21 43/46/21
f 44/47/22 46/49/22 45/48/22
f 46/49/23 48/51/23 47/50/23
f 48/51/24 50/53/24 49/52/24
f 50/53/25 52/55/25 51/54/25
f 52/55/26 54/57/26 53/56/26
f 54/57/27 56/59/27 55/58/27
f 56/59/40 58/78/40 57/60/40
f 58/62/29 60/64/29 59/63/29
f 60/64/30 62/71/30 61/65/30
f 2/67/31 64/79/31 6/68/31
f 64/79/31 62/80/31 6/68/31
f 62/80/31 60/81/31 6/68/31
f 60/81/31 58/82/31 6/68/31
f 58/82/41 56/83/41 6/68/41
f 56/83/42 54/84/42 6/68/42
f 54/84/31 52/85/31 6/68/31
f 52/85/31 50/86/31 6/68/31
f 50/86/31 48/87/31 6/68/31
f 48/87/31 46/88/31 6/68/31
f 46/88/31 44/89/31 6/68/31
f 44/89/43 42/90/43 6/68/43
f 42/90/31 40/91/31 6/68/31
f 38/92/31 36/93/31 34/94/31
f 38/92/44 34/94/44 32/95/44
f 40/91/31 38/92/31 32/95/31
f 6/68/31 40/91/31 32/95/31
f 28/96/31 32/95/31 30/97/31
f 26/98/44 32/95/44 28/96/44
f 24/99/45 32/95/45 26/98/45
f 22/100/46 32/95/46 24/99/46
f 20/101/31 32/95/31 22/100/31
f 10/102/31 14/103/31 12/104/31
f 10/102/31 16/105/31 14/103/31
f 18/106/43 32/95/43 20/101/43
f 16/105/31 32/95/31 18/106/31
f 10/102/31 32/95/31 16/105/31
f 8/107/31 6/68/31 32/95/31
f 10/102/31 8/107/31 32/95/31
f 64/70/47 2/2/47 1/1/47
f 62/71/33 64/70/33 63/69/33
f 3/73/34 5/108/34 63/74/34
f 5/108/34 7/109/34 63/74/34
f 7/109/34 9/110/34 63/74/34
f 9/110/48 11/111/48 63/74/48
f 11/111/34 13/112/34 63/74/34
f 13/112/34 15/113/34 63/74/34
f 15/113/34 17/114/34 63/74/34
f 17/114/49 19/115/49 63/74/49
f 19/115/34 21/116/34 63/74/34
f 21/116/50 23/117/50 63/74/50
f 23/117/34 25/118/34 63/74/34
f 53/119/34 49/120/34 51/121/34
f 25/118/34 27/122/34 29/123/34
f 63/74/34 25/118/34 29/123/34
f 35/124/51 31/125/51 33/126/51
f 35/124/52 29/123/52 31/125/52
f 63/74/34 29/123/34 35/124/34
f 41/127/34 37/128/34 39/129/34
f 41/127/49 35/124/49 37/128/49
f 63/74/34 35/124/34 41/127/34
f 47/130/34 43/131/34 45/132/34
f 61/133/34 63/74/34 41/127/34
f 53/119/34 47/130/34 49/120/34
f 53/119/34 43/131/34 47/130/34
f 59/134/34 61/133/34 41/127/34
f 57/135/34 59/134/34 41/127/34
f 55/136/34 57/135/34 41/127/34
f 53/119/34 55/136/34 43/131/34
f 55/136/34 41/127/34 43/131/34
