# Blender v2.69 (sub 0) OBJ File: ''
# www.blender.org
mtllib rightflipper.mtl
o Cube.005_Cube.009
v 1.930880 0.690907 14.244726
v 1.930880 1.573957 14.244726
v 0.380812 1.466432 15.114944
v 0.380812 0.798432 15.114944
v 1.805934 1.568812 14.206866
v 1.444358 1.562137 13.845383
v 1.436166 1.562600 13.818362
v 1.690413 1.564925 14.145158
v 1.506083 1.561523 13.960876
v 1.589165 1.562464 14.062096
v 0.123054 1.466432 15.233118
v 0.123054 0.798432 15.233118
v 1.805934 0.696052 14.206866
v 1.436166 0.702264 13.818362
v 1.444358 0.702726 13.845383
v 1.690413 0.699938 14.145158
v 1.506083 0.703341 13.960876
v 1.589165 0.702399 14.062096
v 1.421890 1.568946 13.771274
v -0.044299 1.466432 15.221066
v -0.044299 0.798432 15.221066
v 1.421890 0.695917 13.771274
v 1.408020 1.571896 13.725522
v -0.172907 1.466432 15.160238
v -0.172907 0.798432 15.160238
v 1.408020 0.692968 13.725522
v 1.401983 1.574177 13.675466
v 1.406364 1.572122 13.720059
v -0.217851 1.466432 15.089866
v -0.217851 0.798432 15.089866
v 1.401983 0.690687 13.675466
v 1.406364 0.692741 13.720059
v 1.399077 1.574860 13.645883
v -0.262799 1.466432 15.038122
v -0.262799 0.798432 15.038122
v 1.399077 0.690004 13.645883
v 1.396735 1.575553 13.622050
v -0.307737 1.466432 14.949121
v -0.307737 0.798432 14.949121
v 1.396735 0.689311 13.622050
v 1.393559 1.576157 13.589719
v 1.393598 1.576169 13.589314
v -0.274509 1.466432 14.812860
v -0.274509 0.798432 14.812860
v 1.393559 0.688706 13.589719
v 1.393598 0.688695 13.589314
v 1.396901 1.575780 13.555890
v -0.136903 1.466432 14.658765
v -0.136903 0.798432 14.658765
v 1.396901 0.689084 13.555890
v 1.398508 1.573206 13.539620
v 1.398508 0.691657 13.539620
v 2.192412 0.598816 12.934214
v 2.062038 0.598816 12.921412
v 2.062038 1.668276 12.921412
v 2.192412 1.668276 12.934214
v 1.931659 0.598816 12.934287
v 1.931659 1.668276 12.934287
v 2.317769 0.598816 12.972199
v 2.317769 1.668276 12.972199
v 1.806281 0.598816 12.972342
v 1.806281 1.668276 12.972342
v 2.433291 0.598816 13.033907
v 2.433291 1.668276 13.033907
v 1.690724 0.598816 13.034114
v 1.690724 1.668276 13.034114
v 2.534538 0.598816 13.116968
v 2.534538 1.668276 13.116968
v 1.589430 0.598816 13.117231
v 1.589430 1.668276 13.117231
v 2.617621 0.598816 13.218190
v 2.617621 1.668276 13.218190
v 1.506291 0.598816 13.218501
v 1.506291 1.668276 13.218501
v 2.679345 0.598816 13.333682
v 2.679345 1.668276 13.333682
v 1.444501 0.598816 13.334026
v 1.444501 1.668276 13.334026
v 2.717340 0.598816 13.459005
v 2.717340 1.668276 13.459005
v 1.406437 0.598816 13.459372
v 1.406437 1.668276 13.459372
v 2.730144 0.598816 13.589345
v 2.730144 1.668276 13.589345
v 1.393559 1.668276 13.589719
v 1.393559 0.598816 13.589719
v 2.717267 0.598816 13.719693
v 2.717267 1.668276 13.719693
v 1.406364 0.598816 13.720059
v 1.406364 1.668276 13.720059
v 2.679202 0.598816 13.845037
v 2.679202 1.668276 13.845037
v 1.444358 0.598816 13.845383
v 1.444358 1.668276 13.845383
v 2.617413 0.598816 13.960564
v 2.617413 1.668276 13.960564
v 1.506083 0.598816 13.960876
v 1.506083 1.668276 13.960876
v 2.534274 0.598816 14.061832
v 2.534274 1.668276 14.061832
v 1.589165 0.598816 14.062096
v 1.589165 1.668276 14.062096
v 2.432980 0.598816 14.144949
v 2.432980 1.668276 14.144949
v 1.690413 0.598816 14.145158
v 1.690413 1.668276 14.145158
v 2.317423 0.598816 14.206723
v 2.317423 1.668276 14.206723
v 1.805934 0.598816 14.206866
v 1.805934 1.668276 14.206866
v 2.192046 0.598816 14.244779
v 2.192046 1.668276 14.244779
v 1.931291 1.668276 14.244851
v 1.931291 0.598816 14.244851
v 2.061664 0.598816 14.257652
v 2.061664 1.668276 14.257652
vt 0.000000 0.000000
vt 1.000000 0.000000
vt 0.000000 1.000000
vt 1.000000 1.000000
vt 0.443199 0.491433
vt 0.443199 0.524144
vt 0.012117 0.491433
vt 0.443199 0.564309
vt 0.012117 0.524144
vt 0.443199 0.610382
vt 0.012117 0.564309
vt 0.443199 0.660594
vt 0.012117 0.610382
vt 0.443199 0.713016
vt 0.012117 0.660594
vt 0.443199 0.765633
vt 0.012117 0.713016
vt 0.443199 0.816421
vt 0.012117 0.765633
vt 0.443199 0.863431
vt 0.012117 0.816421
vt 0.443199 0.904856
vt 0.012117 0.863431
vt 0.443199 0.939102
vt 0.012117 0.904856
vt 0.443199 0.964855
vt 0.012117 0.939102
vt 0.443199 0.981125
vt 0.012117 0.964855
vt 0.443199 0.987286
vt 0.012117 0.981125
vt 0.556801 0.604053
vt 0.556801 0.592129
vt 0.987883 0.604053
vt 0.556801 0.574632
vt 0.987883 0.592129
vt 0.532568 0.443199
vt 0.509054 0.443199
vt 0.532568 0.012117
vt 0.476782 0.443199
vt 0.509054 0.012117
vt 0.476651 0.405180
vt 0.476651 0.049237
vt 0.436988 0.051311
vt 0.476781 0.012117
vt 0.436988 0.443199
vt 0.436988 0.403106
vt 0.391204 0.401540
vt 0.391203 0.052877
vt 0.436988 0.012117
vt 0.391204 0.443199
vt 0.341187 0.400548
vt 0.341187 0.053869
vt 0.391203 0.012117
vt 0.341187 0.443199
vt 0.288863 0.400168
vt 0.288863 0.054249
vt 0.341187 0.012117
vt 0.288863 0.443199
vt 0.236238 0.443199
vt 0.288863 0.012117
vt 0.236238 0.012117
vt 0.187557 0.404350
vt 0.206139 0.403161
vt 0.225264 0.400602
vt 0.236238 0.400416
vt 0.185338 0.443199
vt 0.185338 0.404441
vt 0.206139 0.051256
vt 0.187557 0.050068
vt 0.236238 0.054001
vt 0.225264 0.053815
vt 0.185338 0.049976
vt 0.185338 0.012117
vt 0.149831 0.405824
vt 0.158465 0.405544
vt 0.138118 0.443199
vt 0.138118 0.406067
vt 0.169183 0.405269
vt 0.169183 0.049148
vt 0.158465 0.048873
vt 0.138118 0.012117
vt 0.149831 0.048594
vt 0.138118 0.048350
vt 0.122081 0.049539
vt 0.122081 0.404878
vt 0.096392 0.443199
vt 0.127289 0.405915
vt 0.096392 0.012117
vt 0.127289 0.048502
vt 0.137988 0.406072
vt 0.137988 0.048345
vt 0.061764 0.443199
vt 0.035565 0.443199
vt 0.061764 0.012117
vt 0.018801 0.443199
vt 0.035565 0.012117
vt 0.012117 0.443199
vt 0.018801 0.012117
vt 0.874186 0.443199
vt 0.862262 0.443199
vt 0.874186 0.012117
vt 0.654843 0.476242
vt 0.645036 0.508712
vt 0.634140 0.532440
vt 0.622572 0.546516
vt 0.663182 0.436279
vt 0.610778 0.550399
vt 0.669735 0.390359
vt 0.599211 0.543938
vt 0.674248 0.340247
vt 0.588314 0.527382
vt 0.676549 0.287866
vt 0.578508 0.501368
vt 0.676549 0.235233
vt 0.570168 0.466895
vt 0.674248 0.184368
vt 0.563616 0.425289
vt 0.669735 0.137226
vt 0.559102 0.378147
vt 0.663182 0.095619
vt 0.556801 0.327282
vt 0.654843 0.061147
vt 0.556801 0.274648
vt 0.645036 0.035133
vt 0.559102 0.222269
vt 0.634140 0.018577
vt 0.563616 0.172155
vt 0.622572 0.012117
vt 0.570168 0.126235
vt 0.610778 0.015999
vt 0.578508 0.086272
vt 0.599211 0.030074
vt 0.588314 0.053803
vt 0.012117 0.467432
vt 0.844764 0.443199
vt 0.862261 0.012117
vt 0.789018 0.053803
vt 0.798824 0.086273
vt 0.778122 0.030075
vt 0.766554 0.015999
vt 0.807164 0.126236
vt 0.754760 0.012117
vt 0.813717 0.172156
vt 0.743192 0.018578
vt 0.818230 0.222269
vt 0.732296 0.035134
vt 0.820531 0.274649
vt 0.722489 0.061147
vt 0.820531 0.327283
vt 0.714150 0.095620
vt 0.818230 0.378148
vt 0.707597 0.137226
vt 0.813716 0.425289
vt 0.703084 0.184368
vt 0.807164 0.466896
vt 0.700783 0.235233
vt 0.798824 0.501368
vt 0.700783 0.287867
vt 0.789018 0.527382
vt 0.703084 0.340247
vt 0.778121 0.543938
vt 0.707597 0.390360
vt 0.766554 0.550399
vt 0.714150 0.436280
vt 0.754760 0.546516
vt 0.722489 0.476243
vt 0.743192 0.532441
vt 0.732296 0.508712
vt 0.012117 0.987286
vt 0.987883 0.574632
vt 0.012117 0.012117
vt 0.443199 0.467432
vt 0.844764 0.012117
vn 0.489537 0.000000 0.871983
vn -0.745888 0.000000 -0.666071
vn -0.589025 0.000000 -0.808115
vn -0.050967 -0.998170 0.032549
vn -0.050967 -0.998170 0.032551
vn -0.050969 -0.998170 0.032550
vn -0.050970 -0.998170 0.032546
vn -0.050965 -0.998170 0.032551
vn 0.053794 -0.991634 0.117337
vn -0.004735 -0.997824 0.065767
vn -0.022801 -0.998575 0.048256
vn -0.022823 -0.998574 0.048255
vn -0.042649 -0.998719 0.027237
vn -0.037715 -0.998751 0.032767
vn -0.045865 -0.998674 0.023370
vn -0.045887 -0.998678 0.023175
vn -0.079847 -0.996617 -0.019476
vn -0.192445 -0.966147 -0.171829
vn -0.050967 0.998170 0.032549
vn -0.050967 0.998170 0.032551
vn -0.050969 0.998170 0.032549
vn -0.050969 0.998170 0.032546
vn -0.050962 0.998170 0.032556
vn -0.050966 0.998170 0.032553
vn 0.053799 0.991633 0.117347
vn -0.004739 0.997824 0.065763
vn -0.022821 0.998573 0.048273
vn -0.022823 0.998574 0.048259
vn -0.042648 0.998719 0.027238
vn -0.037717 0.998751 0.032762
vn -0.045259 0.998688 0.023969
vn -0.045895 0.998677 0.023173
vn -0.079844 0.996617 -0.019471
vn -0.192452 0.966140 -0.171860
vn -0.842784 0.000000 0.538252
vn -0.071831 0.000000 0.997417
vn -0.892671 0.000000 0.450710
vn -0.427570 0.000000 0.903982
vn 0.416753 0.000000 0.909020
vn -0.971531 0.000000 -0.236911
vn -0.754924 0.000000 0.655813
vn 0.097709 0.000000 -0.995215
vn 0.290003 0.000000 -0.957026
vn 0.471159 0.000000 -0.882048
vn 0.634256 0.000000 -0.773123
vn 0.772968 0.000000 -0.634445
vn 0.881945 0.000000 -0.471353
vn 0.956987 0.000000 -0.290132
vn 0.995210 0.000000 -0.097762
vn 0.995156 0.000000 0.098308
vn 0.956852 0.000000 0.290576
vn 0.881797 0.000000 0.471629
vn 0.772900 0.000000 0.634528
vn 0.634333 0.000000 0.773060
vn 0.471452 0.000000 0.881892
vn 0.290446 0.000000 0.956891
vn 0.098256 0.000000 0.995161
vn -0.097723 0.000000 0.995214
vn -0.296448 0.000000 0.955049
vn -0.290010 0.000005 0.957024
vn -0.289998 0.000000 0.957027
vn -0.471155 0.000000 0.882050
vn -0.471167 0.000000 0.882044
vn -0.634257 0.000000 0.773123
vn -0.634251 0.000000 0.773127
vn -0.772961 0.000000 0.634453
vn -0.772963 0.000000 0.634452
vn -0.881942 0.000000 0.471358
vn -0.881941 0.000000 0.471361
vn -0.956993 0.000009 0.290112
vn -0.956981 0.000000 0.290152
vn -0.956986 0.000000 0.290133
vn -0.956989 -0.000009 0.290124
vn -0.956983 0.000000 0.290144
vn -0.956987 0.000000 0.290130
vn -0.995206 0.000014 0.097800
vn -0.995211 0.000000 0.097754
vn -0.995211 -0.000030 0.097752
vn -0.995207 -0.000011 0.097790
vn -0.995211 0.000000 0.097752
vn -0.995209 0.000000 0.097768
vn -0.995154 0.000000 -0.098323
vn -0.995156 0.000000 -0.098305
vn -0.995157 -0.000002 -0.098300
vn -0.995153 -0.000009 -0.098339
vn -0.995153 0.000005 -0.098334
vn -0.995155 0.000000 -0.098320
vn -0.995155 0.000000 -0.098321
vn -0.956854 0.000000 -0.290570
vn -0.881792 0.000000 -0.471639
vn -0.772905 0.000000 -0.634522
vn -0.634342 0.000000 -0.773053
vn -0.471431 0.000000 -0.881903
vn 0.000000 1.000000 -0.000009
vn 0.000000 1.000000 0.000003
vn 0.000000 1.000000 -0.000006
vn 0.000000 1.000000 0.000000
vn 0.000000 1.000000 0.000002
vn 0.000000 1.000000 0.000001
vn 0.000000 1.000000 -0.000002
vn 0.000000 1.000000 -0.000001
vn -0.098272 0.000000 -0.995160
vn -0.290443 0.000000 -0.956892
vn 0.000000 -1.000000 0.000000
vn 0.000000 -1.000000 0.000002
vn 0.000000 -1.000000 -0.000001
vn 0.000000 -1.000000 0.000001
vn 0.000000 -1.000000 0.000004
vn 0.489537 0.000000 0.871982
vn -0.589026 0.000000 -0.808114
vn 0.053797 -0.991634 0.117339
vn -0.004739 -0.997824 0.065765
vn -0.022824 -0.998574 0.048254
vn -0.042648 -0.998719 0.027238
vn -0.037717 -0.998751 0.032762
vn -0.045895 -0.998678 0.023172
vn -0.079844 -0.996617 -0.019471
vn -0.192452 -0.966139 -0.171863
vn 0.053794 0.991634 0.117335
vn -0.004735 0.997824 0.065765
vn -0.022822 0.998574 0.048254
vn -0.042650 0.998719 0.027235
vn -0.037714 0.998751 0.032772
vn -0.045895 0.998678 0.023162
vn -0.079846 0.996617 -0.019471
vn -0.192443 0.966142 -0.171858
vn -0.842794 0.000000 0.538237
vn -0.071814 0.000000 0.997418
vn -0.892665 0.000000 0.450721
vn -0.427554 0.000000 0.903990
vn -0.754942 0.000000 0.655792
vn 0.097722 0.000000 -0.995214
vn 0.471149 0.000000 -0.882054
vn 0.634257 0.000000 -0.773123
vn 0.772962 0.000000 -0.634452
vn 0.995210 0.000000 -0.097764
vn 0.995156 0.000000 0.098307
vn 0.956851 0.000000 0.290580
vn 0.772894 0.000000 0.634535
vn 0.471431 0.000000 0.881903
vn 0.098269 0.000000 0.995160
vn -0.290929 0.000000 0.956745
vn -0.289983 0.000000 0.957032
vn -0.289993 -0.000005 0.957029
vn -0.471170 0.000000 0.882042
vn -0.471169 0.000000 0.882043
vn -0.634253 0.000000 0.773126
vn -0.634257 0.000000 0.773122
vn -0.772964 0.000000 0.634450
vn -0.772965 0.000000 0.634449
vn -0.881949 0.000000 0.471346
vn -0.881947 0.000000 0.471348
vn -0.956987 -0.000004 0.290130
vn -0.956997 0.000052 0.290097
vn -0.956988 0.000004 0.290129
vn -0.956998 -0.000053 0.290094
vn -0.995207 0.000011 0.097786
vn -0.995209 0.000000 0.097769
vn -0.995207 -0.000014 0.097791
vn -0.995211 0.000030 0.097754
vn -0.995154 0.000000 -0.098325
vn -0.995286 -0.000852 -0.096983
vn -0.995310 0.000829 -0.096732
vn -0.956852 0.000000 -0.290574
vn -0.881795 0.000000 -0.471633
vn -0.772899 0.000000 -0.634529
vn -0.634334 0.000000 -0.773059
vn -0.098258 0.000000 -0.995161
vn -0.290431 0.000000 -0.956896
usemtl None
s off
f 1/1/1 2/2/1 4/3/1
f 48/1/2 49/2/2 43/3/2
f 49/1/3 48/2/3 52/3/3
f 4/1/4 18/2/4 16/4/4
f 4/1/5 17/2/5 18/4/5
f 4/1/4 15/2/4 17/4/4
f 16/1/6 13/2/6 4/4/6
f 4/1/7 14/2/7 15/4/7
f 13/1/8 1/2/8 4/4/8
f 4/1/9 12/2/9 14/3/9
f 12/1/10 21/2/10 22/3/10
f 26/1/11 21/2/11 32/4/11
f 21/1/12 25/2/12 32/3/12
f 31/1/13 25/2/13 36/3/13
f 36/1/14 30/2/14 40/3/14
f 39/1/15 46/2/15 45/4/15
f 40/1/16 35/2/16 45/3/16
f 46/1/17 39/2/17 50/3/17
f 50/1/18 44/2/18 52/3/18
f 3/1/19 10/2/19 9/4/19
f 3/1/20 8/2/20 10/4/20
f 9/1/21 6/2/21 3/4/21
f 3/1/22 5/2/22 8/4/22
f 6/1/23 7/2/23 3/4/23
f 3/1/24 2/2/24 5/4/24
f 19/1/25 11/2/25 7/3/25
f 23/1/26 20/2/26 19/3/26
f 20/1/27 23/2/27 28/4/27
f 27/1/28 24/2/28 28/3/28
f 29/1/29 24/2/29 33/3/29
f 34/1/30 29/2/30 37/3/30
f 38/1/31 41/2/31 42/4/31
f 38/1/32 34/2/32 41/3/32
f 43/1/33 38/2/33 47/3/33
f 48/1/34 43/2/34 51/3/34
f 29/1/35 30/2/35 24/3/35
f 20/1/36 21/2/36 11/3/36
f 38/1/37 39/2/37 34/3/37
f 24/1/38 25/2/38 20/3/38
f 11/1/39 12/2/39 3/3/39
f 43/1/40 44/2/40 38/3/40
f 34/1/41 35/2/41 29/3/41
f 55/5/42 56/6/42 54/7/42
f 56/6/43 60/8/43 53/9/43
f 60/8/44 64/10/44 59/11/44
f 64/10/45 68/12/45 63/13/45
f 68/12/46 72/14/46 67/15/46
f 72/14/47 76/16/47 71/17/47
f 76/16/48 80/18/48 75/19/48
f 80/18/49 84/20/49 79/21/49
f 84/20/50 88/22/50 83/23/50
f 88/22/51 92/24/51 87/25/51
f 92/24/52 96/26/52 91/27/52
f 96/26/53 100/28/53 95/29/53
f 100/28/54 104/30/54 99/31/54
f 104/32/55 108/33/55 103/34/55
f 108/33/56 112/35/56 107/36/56
f 112/37/57 116/38/57 111/39/57
f 116/38/58 113/40/58 115/41/58
f 2/42/59 1/43/59 113/40/59
f 1/43/60 13/44/60 114/45/60
f 110/46/61 5/47/61 113/40/61
f 5/47/62 110/46/62 8/48/62
f 13/44/63 16/49/63 109/50/63
f 8/48/64 106/51/64 10/52/64
f 16/49/65 18/53/65 105/54/65
f 10/52/66 102/55/66 9/56/66
f 18/53/67 17/57/67 101/58/67
f 98/59/68 94/60/68 9/56/68
f 97/61/69 17/57/69 93/62/69
f 94/60/70 23/63/70 19/64/70
f 7/65/71 6/66/71 94/60/71
f 94/60/72 90/67/72 28/68/72
f 93/62/73 22/69/73 26/70/73
f 93/62/74 15/71/74 14/72/74
f 32/73/75 89/74/75 93/62/75
f 37/75/76 33/76/76 85/77/76
f 85/77/77 41/78/77 37/75/77
f 27/79/78 28/68/78 85/77/78
f 31/80/79 36/81/79 86/82/79
f 40/83/80 45/84/80 86/82/80
f 89/74/81 32/73/81 86/82/81
f 52/85/82 51/86/82 82/87/82
f 51/86/83 47/88/83 82/87/83
f 81/89/84 50/90/84 52/85/84
f 47/88/85 42/91/85 82/87/85
f 81/89/86 46/92/86 50/90/86
f 81/89/87 86/82/87 45/84/87
f 41/78/88 85/77/88 82/87/88
f 82/87/89 78/93/89 81/89/89
f 78/93/90 74/94/90 77/95/90
f 74/94/91 70/96/91 73/97/91
f 70/96/92 66/98/92 69/99/92
f 66/100/93 62/101/93 65/102/93
f 56/103/94 55/104/94 58/105/94
f 56/103/95 58/105/95 62/106/95
f 56/103/96 62/106/96 60/107/96
f 62/106/97 66/108/97 60/107/97
f 66/108/98 64/109/98 60/107/98
f 66/108/97 70/110/97 64/109/97
f 70/110/98 68/111/98 64/109/98
f 70/110/97 74/112/97 68/111/97
f 74/112/99 72/113/99 68/111/99
f 74/112/100 78/114/100 72/113/100
f 78/114/97 76/115/97 72/113/97
f 78/114/97 82/116/97 76/115/97
f 82/116/100 80/117/100 76/115/100
f 82/116/97 85/118/97 80/117/97
f 85/118/99 84/119/99 80/117/99
f 85/118/97 90/120/97 84/119/97
f 90/120/101 88/121/101 84/119/101
f 90/120/97 94/122/97 88/121/97
f 94/122/101 92/123/101 88/121/101
f 94/122/100 98/124/100 92/123/100
f 98/124/99 96/125/99 92/123/99
f 98/124/97 102/126/97 96/125/97
f 102/126/97 100/127/97 96/125/97
f 102/126/97 106/128/97 100/127/97
f 106/128/97 104/129/97 100/127/97
f 106/128/97 110/130/97 104/129/97
f 110/130/100 108/131/100 104/129/100
f 110/130/97 113/132/97 108/131/97
f 113/132/97 112/133/97 108/131/97
f 113/132/97 116/134/97 112/133/97
f 54/7/102 57/135/102 55/5/102
f 62/101/103 58/136/103 61/137/103
f 54/138/104 53/139/104 57/140/104
f 53/139/105 61/141/105 57/140/105
f 53/139/104 59/142/104 61/141/104
f 59/142/106 65/143/106 61/141/106
f 59/142/104 63/144/104 65/143/104
f 63/144/107 69/145/107 65/143/107
f 63/144/104 67/146/104 69/145/104
f 67/146/104 73/147/104 69/145/104
f 67/146/104 71/148/104 73/147/104
f 71/148/104 77/149/104 73/147/104
f 71/148/104 75/150/104 77/149/104
f 75/150/104 81/151/104 77/149/104
f 75/150/104 79/152/104 81/151/104
f 79/152/104 86/153/104 81/151/104
f 79/152/104 83/154/104 86/153/104
f 83/154/104 89/155/104 86/153/104
f 83/154/107 87/156/107 89/155/107
f 87/156/104 93/157/104 89/155/104
f 87/156/104 91/158/104 93/157/104
f 91/158/104 97/159/104 93/157/104
f 91/158/104 95/160/104 97/159/104
f 95/160/104 101/161/104 97/159/104
f 95/160/104 99/162/104 101/161/104
f 99/162/104 105/163/104 101/161/104
f 99/162/104 103/164/104 105/163/104
f 103/164/107 109/165/107 105/163/107
f 103/164/104 107/166/104 109/165/104
f 107/166/107 114/167/107 109/165/107
f 107/166/104 111/168/104 114/167/104
f 111/168/108 115/169/108 114/167/108
f 2/2/109 3/4/109 4/3/109
f 49/2/2 44/4/2 43/3/2
f 48/2/110 51/4/110 52/3/110
f 12/2/111 22/4/111 14/3/111
f 21/2/112 26/4/112 22/3/112
f 25/2/113 31/4/113 32/3/113
f 25/2/114 30/4/114 36/3/114
f 30/2/115 35/4/115 40/3/115
f 35/2/116 39/4/116 45/3/116
f 39/2/117 44/4/117 50/3/117
f 44/2/118 49/4/118 52/3/118
f 11/2/119 3/4/119 7/3/119
f 20/2/120 11/4/120 19/3/120
f 24/2/121 20/4/121 28/3/121
f 24/2/122 27/4/122 33/3/122
f 29/2/123 33/4/123 37/3/123
f 34/2/124 37/4/124 41/3/124
f 38/2/125 42/4/125 47/3/125
f 43/2/126 47/4/126 51/3/126
f 30/2/127 25/4/127 24/3/127
f 21/2/128 12/4/128 11/3/128
f 39/2/129 35/4/129 34/3/129
f 25/2/130 21/4/130 20/3/130
f 12/2/39 4/4/39 3/3/39
f 44/2/40 39/4/40 38/3/40
f 35/2/131 30/4/131 29/3/131
f 56/6/132 53/9/132 54/7/132
f 60/8/43 59/11/43 53/9/43
f 64/10/133 63/13/133 59/11/133
f 68/12/134 67/15/134 63/13/134
f 72/14/135 71/17/135 67/15/135
f 76/16/47 75/19/47 71/17/47
f 80/18/48 79/21/48 75/19/48
f 84/20/136 83/23/136 79/21/136
f 88/22/137 87/25/137 83/23/137
f 92/24/138 91/27/138 87/25/138
f 96/26/52 95/29/52 91/27/52
f 100/28/139 99/31/139 95/29/139
f 104/30/54 103/170/54 99/31/54
f 108/33/140 107/36/140 103/34/140
f 112/35/56 111/171/56 107/36/56
f 116/38/141 115/41/141 111/39/141
f 113/40/58 114/45/58 115/41/58
f 1/43/142 114/45/142 113/40/142
f 13/44/143 109/50/143 114/45/143
f 5/47/144 2/42/144 113/40/144
f 110/46/145 106/51/145 8/48/145
f 16/49/146 105/54/146 109/50/146
f 106/51/147 102/55/147 10/52/147
f 18/53/148 101/58/148 105/54/148
f 102/55/149 98/59/149 9/56/149
f 17/57/150 97/61/150 101/58/150
f 94/60/151 6/66/151 9/56/151
f 17/57/152 15/71/152 93/62/152
f 19/64/153 7/65/153 94/60/153
f 23/63/154 94/60/154 28/68/154
f 22/69/155 93/62/155 14/72/155
f 26/70/156 32/73/156 93/62/156
f 33/76/157 27/79/157 85/77/157
f 28/68/158 90/67/158 85/77/158
f 36/81/159 40/83/159 86/82/159
f 32/73/160 31/80/160 86/82/160
f 81/89/161 52/85/161 82/87/161
f 46/92/162 81/89/162 45/84/162
f 42/91/163 41/78/163 82/87/163
f 78/93/164 77/95/164 81/89/164
f 74/94/165 73/97/165 77/95/165
f 70/96/166 69/99/166 73/97/166
f 66/98/167 65/172/167 69/99/167
f 62/101/93 61/137/93 65/102/93
f 57/135/168 58/173/168 55/5/168
f 58/136/169 57/174/169 61/137/169
