# Blender v2.69 (sub 0) OBJ File: 'all.blend'
# www.blender.org
mtllib rightdivider.mtl
o Cube.007_Cube.020
v 1.935258 1.651454 13.986168
v 5.856101 1.472723 4.966573
v 5.256101 1.472723 4.966573
v 1.933846 1.651454 13.448670
v 1.935256 0.051454 13.986168
v 5.856098 -0.127277 4.966573
v 5.256098 -0.127276 4.966573
v 1.933844 0.051454 13.448670
v 5.856098 -0.127277 9.525826
v 5.856101 1.472723 9.525826
v 5.256098 -0.127276 9.525826
v 5.256101 1.472723 9.525826
v 5.856101 1.472723 12.025826
v 5.256098 -0.127276 11.723199
v 5.856098 -0.127277 12.025826
v 5.256101 1.472723 11.723199
v 5.556098 -0.127277 4.525826
v 5.556100 1.472723 4.525826
v 5.406098 -0.127277 4.601779
v 5.706100 1.472723 4.601779
v 5.706099 -0.127277 4.601779
v 5.406100 1.472723 4.601779
v 5.331099 -0.127277 4.751419
v 5.781100 1.472723 4.751419
v 5.781098 -0.127277 4.751419
v 5.331100 1.472723 4.751419
v 5.481098 -0.127277 4.546999
v 5.631101 1.472723 4.546999
v 5.631098 -0.127277 4.546999
v 5.481101 1.472723 4.546999
vt 0.555076 0.552419
vt 0.591442 0.552419
vt 0.555076 0.055507
vt 0.548373 0.552419
vt 0.558343 0.552419
vt 0.548373 0.055507
vt 1.000000 0.496912
vt 1.000000 0.000000
vt 0.523786 0.496912
vt 0.519499 0.496912
vt 0.523786 0.000000
vt 0.608195 0.998948
vt 0.588254 0.998948
vt 0.598225 1.000000
vt 0.508491 0.998948
vt 0.528432 0.998948
vt 0.518462 1.000000
vt 0.535135 0.552419
vt 0.535135 0.055507
vt 0.511679 0.552419
vt 0.475313 0.552419
vt 0.511679 0.055507
vt 0.558343 0.627316
vt 0.558343 0.751544
vt 0.638107 0.751544
vt 0.558343 0.642354
vt 0.478580 0.627316
vt 0.537549 0.552419
vt 0.521232 0.496912
vt 0.000000 0.552419
vt 0.521232 0.000000
vt 0.521232 0.529904
vt 0.000000 0.627316
vt 0.521420 0.556613
vt 0.079763 0.642354
vt 0.508491 0.552419
vt 0.518462 0.552419
vt 0.508491 0.055507
vt 0.528432 0.552419
vt 0.538402 0.552419
vt 0.528432 0.055507
vt 0.568314 0.552419
vt 0.578284 0.552419
vt 0.568314 0.055507
vt 0.538402 0.055507
vt 0.498521 0.552419
vt 0.498521 0.055507
vt 0.518462 0.055507
vt 0.558343 0.055507
vt 0.591442 0.055507
vt 0.519499 0.000000
vt 0.578284 0.996226
vt 0.568314 0.988790
vt 0.558343 0.978099
vt 0.628136 0.988790
vt 0.618166 0.996226
vt 0.638107 0.978099
vt 0.538402 0.996226
vt 0.548373 0.988790
vt 0.488550 0.988790
vt 0.498521 0.996226
vt 0.478580 0.978099
vt 0.478580 0.751544
vt 0.475313 0.055507
vt 0.638107 0.642354
vt 0.537549 0.055507
vt 0.000000 0.055507
vt 0.578284 0.055507
vn 1.000000 -0.000001 0.000000
vn -0.944273 0.000001 -0.329164
vn -0.460911 0.000000 -0.887446
vn -0.999997 0.000001 0.002628
vn 0.000002 1.000000 0.000005
vn -0.000002 -1.000000 0.000001
vn -1.000000 0.000002 0.000000
vn 0.000001 1.000000 0.000000
vn -0.000001 -1.000000 0.000000
vn 0.447199 -0.000000 0.894434
vn 0.045478 0.998965 -0.000120
vn -0.026460 -0.998272 0.052458
vn 0.271679 -0.000000 -0.962388
vn -0.589833 0.000001 -0.807525
vn 0.893996 -0.000001 -0.448075
vn -0.893997 0.000001 -0.448073
vn 0.589822 -0.000001 -0.807533
vn -0.271670 0.000000 -0.962391
vn 0.944273 -0.000001 -0.329162
vn 1.000000 -0.000002 0.000000
vn -0.944274 0.000002 -0.329162
vn -0.460911 0.000001 -0.887446
vn 0.000002 1.000000 -0.000005
vn 0.000001 1.000000 0.000003
vn 0.000001 1.000000 -0.000001
vn 0.000002 1.000000 0.000000
vn -0.000002 -1.000000 -0.000001
vn -0.000002 -1.000000 -0.000000
vn -0.000000 -1.000000 -0.000001
vn -1.000000 0.000001 0.000000
vn 0.447199 -0.000001 0.894435
vn 0.026460 0.998272 -0.052458
vn -0.045478 -0.998965 0.000120
vn -0.589822 0.000001 -0.807533
vn 0.893997 -0.000001 -0.448073
vn -0.893996 0.000001 -0.448075
vn 0.589829 -0.000001 -0.807528
vn -0.271686 0.000000 -0.962386
vn 0.944273 -0.000001 -0.329163
usemtl None
s off
f 9/1/1 6/2/1 10/3/1
f 23/4/2 7/5/2 26/6/2
f 14/5/3 8/7/3 4/8/3
f 8/9/4 5/10/4 4/11/4
f 30/12/5 28/13/5 18/14/5
f 29/15/6 27/16/6 17/17/6
f 15/18/1 9/1/1 13/19/1
f 7/20/7 11/21/7 3/22/7
f 13/23/8 10/24/8 12/25/8
f 14/26/9 11/24/9 15/27/9
f 11/1/7 14/28/7 12/3/7
f 5/29/10 15/30/10 1/31/10
f 1/32/11 13/33/11 4/34/11
f 8/34/12 14/35/12 15/33/12
f 29/36/13 17/37/13 28/38/13
f 27/39/14 19/40/14 30/41/14
f 25/42/15 21/43/15 24/44/15
f 19/40/16 23/4/16 22/45/16
f 21/46/17 29/36/17 20/47/17
f 17/37/18 27/39/18 18/48/18
f 6/5/19 25/42/19 2/49/19
f 6/2/20 2/50/20 10/3/20
f 7/5/21 3/49/21 26/6/21
f 16/49/22 14/5/22 4/8/22
f 5/10/4 1/51/4 4/11/4
f 30/12/23 20/52/23 28/13/23
f 30/12/24 24/53/24 20/52/24
f 2/54/25 24/53/25 30/12/25
f 26/55/26 30/12/26 22/56/26
f 2/54/8 30/12/8 26/55/8
f 2/54/8 26/55/8 3/57/8
f 10/24/8 2/54/8 12/25/8
f 2/54/8 3/57/8 12/25/8
f 29/15/27 19/58/27 27/16/27
f 29/15/9 23/59/9 19/58/9
f 7/54/28 23/59/28 29/15/28
f 25/60/29 29/15/29 21/61/29
f 7/54/9 29/15/9 25/60/9
f 7/54/9 25/60/9 6/62/9
f 11/24/9 7/54/9 9/63/9
f 7/54/9 6/62/9 9/63/9
f 9/1/20 10/3/20 13/19/20
f 11/21/30 12/64/30 3/22/30
f 16/65/8 13/23/8 12/25/8
f 11/24/9 9/63/9 15/27/9
f 14/28/7 16/66/7 12/3/7
f 15/30/31 13/67/31 1/31/31
f 13/33/32 16/35/32 4/34/32
f 5/32/33 8/34/33 15/33/33
f 17/37/13 18/48/13 28/38/13
f 19/40/34 22/45/34 30/41/34
f 21/43/35 20/68/35 24/44/35
f 23/4/36 26/6/36 22/45/36
f 29/36/37 28/38/37 20/47/37
f 27/39/38 30/41/38 18/48/38
f 25/42/39 24/44/39 2/49/39
