# Blender v2.69 (sub 0) OBJ File: ''
# www.blender.org
mtllib rightdivider.mtl
o Cube.004_Cube.015
v 7.523334 -0.141781 9.525826
v 7.523334 -0.141781 4.966574
v 7.523335 1.458219 9.525826
v 6.998333 -0.141781 4.751420
v 6.923333 -0.141781 4.966574
v 6.998335 1.458219 4.751419
v 5.318891 -0.141778 11.723199
v 1.996635 0.036953 13.448670
v 1.996637 1.636954 13.448670
v 1.998047 0.036953 13.986168
v 7.148335 1.458219 4.546999
v 7.298335 1.458219 4.546999
v 7.223335 1.458219 4.525826
v 7.298333 -0.141781 4.546999
v 7.148334 -0.141781 4.546999
v 7.223333 -0.141781 4.525826
v 5.918891 -0.141778 12.025826
v 5.918893 1.458222 12.025826
v 6.923333 -0.141780 9.525826
v 6.923335 1.458219 4.966573
v 6.923335 1.458220 9.525826
v 1.998049 1.636954 13.986168
v 7.073334 -0.141781 4.601779
v 7.448334 -0.141781 4.751420
v 7.373333 -0.141781 4.601779
v 7.448336 1.458219 4.751419
v 7.073336 1.458219 4.601779
v 7.373335 1.458219 4.601779
v 7.523335 1.458219 4.966573
v 5.318892 1.458223 11.723199
vt 0.574889 0.601314
vt 0.611255 0.601314
vt 0.574889 0.060420
vt 0.548373 0.601314
vt 0.558343 0.601314
vt 0.548373 0.060420
vt 1.000000 0.540894
vt 1.000000 0.000000
vt 0.543599 0.540894
vt 0.539312 0.540894
vt 0.543599 0.000000
vt 0.608195 0.998855
vt 0.588254 0.998855
vt 0.598225 1.000000
vt 0.508491 0.998855
vt 0.528432 0.998855
vt 0.518462 1.000000
vt 0.554948 0.601314
vt 0.554948 0.060420
vt 0.531492 0.601314
vt 0.495126 0.601314
vt 0.531492 0.060420
vt 0.558343 0.594329
vt 0.558343 0.729553
vt 0.638107 0.729553
vt 0.558343 0.610698
vt 0.478580 0.594329
vt 0.557362 0.601314
vt 0.521232 0.540894
vt 0.000000 0.601314
vt 0.521232 0.000000
vt 0.521232 0.488296
vt 0.000000 0.594329
vt 0.521420 0.517369
vt 0.079763 0.610698
vt 0.588254 0.601314
vt 0.598225 0.601314
vt 0.588254 0.060420
vt 0.528432 0.601314
vt 0.538402 0.601314
vt 0.528432 0.060420
vt 0.568314 0.601314
vt 0.578284 0.601314
vt 0.568314 0.060420
vt 0.538402 0.060420
vt 0.578284 0.060420
vt 0.518462 0.601314
vt 0.518462 0.060420
vt 0.558343 0.060420
vt 0.611255 0.060420
vt 0.539312 0.000000
vt 0.578284 0.995892
vt 0.568314 0.987798
vt 0.558343 0.976160
vt 0.628136 0.987798
vt 0.618166 0.995892
vt 0.638107 0.976160
vt 0.538402 0.995892
vt 0.548373 0.987798
vt 0.488550 0.987798
vt 0.498521 0.995892
vt 0.478580 0.976160
vt 0.478580 0.729553
vt 0.495126 0.060420
vt 0.638107 0.610698
vt 0.557362 0.060420
vt 0.000000 0.060420
vt 0.598225 0.060420
vn 1.000000 -0.000002 0.000000
vn -0.944274 0.000001 -0.329161
vn -0.460911 0.000001 -0.887446
vn -0.999997 0.000001 0.002627
vn 0.000001 1.000000 0.000000
vn -0.000002 -1.000000 -0.000001
vn 0.841592 -0.000002 0.540114
vn -1.000000 0.000001 -0.000000
vn -0.000001 -1.000000 0.000000
vn -0.807624 0.000001 -0.589698
vn 0.447199 -0.000001 0.894434
vn 0.045478 0.998965 -0.000120
vn -0.026460 -0.998273 0.052458
vn 0.271686 -0.000001 -0.962386
vn -0.589829 0.000000 -0.807528
vn 0.893994 -0.000001 -0.448079
vn -0.893996 0.000001 -0.448075
vn 0.589817 -0.000001 -0.807537
vn -0.271679 0.000000 -0.962388
vn 0.944274 -0.000001 -0.329161
vn 1.000000 -0.000001 0.000000
vn -0.944274 0.000001 -0.329160
vn -0.460911 0.000000 -0.887446
vn 0.000001 1.000000 0.000004
vn 0.000001 1.000000 -0.000003
vn 0.000002 1.000000 -0.000001
vn 0.000002 1.000000 -0.000002
vn 0.000001 1.000000 0.000001
vn 0.000001 1.000000 -0.000001
vn -0.000002 -1.000000 -0.000002
vn -0.000001 -1.000000 0.000001
vn -0.000002 -1.000000 0.000000
vn 0.841592 -0.000001 0.540114
vn 0.447198 -0.000001 0.894435
vn 0.026460 0.998272 -0.052459
vn -0.045478 -0.998965 0.000120
vn 0.271679 -0.000001 -0.962388
vn -0.589816 0.000000 -0.807538
vn 0.893996 -0.000002 -0.448075
vn -0.893994 0.000001 -0.448079
vn 0.589830 -0.000001 -0.807528
vn -0.271685 0.000000 -0.962386
vn 0.944274 -0.000001 -0.329160
usemtl None.012
s off
f 1/1/1 2/2/1 3/3/1
f 4/4/2 5/5/2 6/6/2
f 7/5/3 8/7/3 9/8/3
f 8/9/4 10/10/4 9/11/4
f 11/12/5 12/13/5 13/14/5
f 14/15/6 15/16/6 16/17/6
f 17/18/7 1/1/7 18/19/7
f 5/20/8 19/21/8 20/22/8
f 18/23/5 3/24/5 21/25/5
f 7/26/9 19/24/9 17/27/9
f 19/1/10 7/28/10 21/3/10
f 10/29/11 17/30/11 22/31/11
f 22/32/12 18/33/12 9/34/12
f 8/34/13 7/35/13 17/33/13
f 14/36/14 16/37/14 12/38/14
f 15/39/15 23/40/15 11/41/15
f 24/42/16 25/43/16 26/44/16
f 23/40/17 4/4/17 27/45/17
f 25/43/18 14/36/18 28/46/18
f 16/47/19 15/39/19 13/48/19
f 2/5/20 24/42/20 29/49/20
f 2/2/21 29/50/21 3/3/21
f 5/5/22 20/49/22 6/6/22
f 30/49/23 7/5/23 9/8/23
f 10/10/4 22/51/4 9/11/4
f 11/12/24 28/52/24 12/13/24
f 11/12/25 26/53/25 28/52/25
f 29/54/26 26/53/26 11/12/26
f 6/55/27 11/12/27 27/56/27
f 29/54/28 11/12/28 6/55/28
f 29/54/29 6/55/29 20/57/29
f 3/24/5 29/54/5 21/25/5
f 29/54/5 20/57/5 21/25/5
f 14/15/30 23/58/30 15/16/30
f 14/15/9 4/59/9 23/58/9
f 5/54/31 4/59/31 14/15/31
f 24/60/32 14/15/32 25/61/32
f 5/54/32 14/15/32 24/60/32
f 5/54/31 24/60/31 2/62/31
f 5/54/9 1/63/9 19/24/9
f 2/62/9 1/63/9 5/54/9
f 1/1/33 3/3/33 18/19/33
f 19/21/8 21/64/8 20/22/8
f 30/65/5 18/23/5 21/25/5
f 19/24/9 1/63/9 17/27/9
f 7/28/10 30/66/10 21/3/10
f 17/30/34 18/67/34 22/31/34
f 18/33/35 30/35/35 9/34/35
f 10/32/36 8/34/36 17/33/36
f 16/37/37 13/68/37 12/38/37
f 23/40/38 27/45/38 11/41/38
f 25/43/39 28/46/39 26/44/39
f 4/4/40 6/6/40 27/45/40
f 14/36/41 12/38/41 28/46/41
f 15/39/42 11/41/42 13/48/42
f 24/42/43 26/44/43 29/49/43
