# Blender v2.69 (sub 0) OBJ File: 'all.blend'
# www.blender.org
mtllib rightflipper.mtl
o Cube.005_Cube.016
v -0.186554 -0.565547 0.620303
v -0.186554 0.317504 0.620303
v -1.745147 0.209979 1.475165
v -1.745147 -0.458021 1.475165
v -0.311154 0.312358 0.581162
v -0.669317 0.305684 0.215876
v -0.677252 0.306147 0.188762
v -0.426100 0.308472 0.518260
v -0.608690 0.305070 0.332039
v -0.526565 0.306011 0.434140
v -2.004069 0.209979 1.590775
v -2.004069 -0.458021 1.590775
v -0.311154 -0.560401 0.581162
v -0.677252 -0.554190 0.188762
v -0.669317 -0.553727 0.215876
v -0.426100 -0.556515 0.518260
v -0.608690 -0.553112 0.332039
v -0.526565 -0.554054 0.434140
v -0.691079 0.312493 0.141510
v -2.171329 0.209979 1.577024
v -2.171329 -0.458021 1.577024
v -0.691079 -0.560536 0.141510
v -0.704513 0.315443 0.095600
v -2.299371 0.209979 1.514869
v -2.299371 -0.458021 1.514869
v -0.704513 -0.563486 0.095600
v -0.710071 0.317724 0.045462
v -0.706117 0.315669 0.090118
v -2.343647 0.209979 1.444014
v -2.343647 -0.458021 1.444014
v -0.710071 -0.565767 0.045462
v -0.706117 -0.563712 0.090118
v -0.712695 0.318406 0.015839
v -2.388106 0.209979 1.391795
v -2.388106 -0.458021 1.391795
v -0.712695 -0.566449 0.015839
v -0.714809 0.319100 -0.008027
v -2.432197 0.209979 1.302304
v -2.432197 -0.458021 1.302304
v -0.714809 -0.567143 -0.008027
v -0.717676 0.319704 -0.040403
v -0.717633 0.319715 -0.040808
v -2.397661 0.209979 1.166326
v -2.397661 -0.458021 1.166326
v -0.717676 -0.567747 -0.040403
v -0.717633 -0.567758 -0.040808
v -0.714010 0.319327 -0.074211
v -2.258564 0.209979 1.013564
v -2.258564 -0.458021 1.013564
v -0.714010 -0.567370 -0.074211
v -0.712247 0.316753 -0.090471
v -0.712247 -0.564796 -0.090471
v 0.087552 -0.657637 -0.688076
v -0.042717 -0.657637 -0.702202
v -0.042717 0.411823 -0.702202
v 0.087552 0.411823 -0.688076
v -0.173235 -0.657637 -0.690643
v -0.173235 0.411823 -0.690643
v 0.212561 -0.657637 -0.648806
v 0.212561 0.411823 -0.648806
v -0.298993 -0.657637 -0.653843
v -0.298993 0.411823 -0.653843
v 0.327507 -0.657637 -0.585904
v 0.327507 0.411823 -0.585904
v -0.415156 -0.657637 -0.593217
v -0.415156 0.411823 -0.593217
v 0.427973 -0.657637 -0.501785
v 0.427973 0.411823 -0.501785
v -0.517259 -0.657637 -0.511092
v -0.517259 0.411823 -0.511092
v 0.510097 -0.657637 -0.399682
v 0.510097 0.411823 -0.399682
v -0.601377 -0.657637 -0.410625
v -0.601377 0.411823 -0.410625
v 0.570724 -0.657637 -0.283520
v 0.570724 0.411823 -0.283520
v -0.664281 -0.657637 -0.295681
v -0.664281 0.411823 -0.295681
v 0.607524 -0.657637 -0.157762
v 0.607524 0.411823 -0.157762
v -0.703549 -0.657637 -0.170671
v -0.703549 0.411823 -0.170671
v 0.619083 -0.657637 -0.027242
v 0.619083 0.411823 -0.027242
v -0.717676 0.411823 -0.040403
v -0.717676 -0.657637 -0.040403
v 0.604957 -0.657637 0.103027
v 0.604957 0.411823 0.103027
v -0.706117 -0.657637 0.090118
v -0.706117 0.411823 0.090118
v 0.565688 -0.657637 0.228035
v 0.565688 0.411823 0.228035
v -0.669317 -0.657637 0.215876
v -0.669317 0.411823 0.215876
v 0.502785 -0.657637 0.342981
v 0.502785 0.411823 0.342981
v -0.608690 -0.657637 0.332039
v -0.608690 0.411823 0.332039
v 0.418666 -0.657637 0.443448
v 0.418666 0.411823 0.443448
v -0.526565 -0.657637 0.434140
v -0.526565 0.411823 0.434140
v 0.316564 -0.657637 0.525571
v 0.316564 0.411823 0.525571
v -0.426100 -0.657637 0.518260
v -0.426100 0.411823 0.518260
v 0.200401 -0.657637 0.586199
v 0.200401 0.411823 0.586199
v -0.311154 -0.657637 0.581162
v -0.311154 0.411823 0.581162
v 0.074644 -0.657637 0.623000
v 0.074644 0.411823 0.623000
v -0.186145 0.411823 0.620432
v -0.186145 -0.657637 0.620432
v -0.055877 -0.657637 0.634558
v -0.055877 0.411823 0.634558
vt 0.000000 0.000000
vt 1.000000 0.000000
vt 0.000000 1.000000
vt 1.000000 1.000000
vt 0.443199 0.491433
vt 0.443199 0.524144
vt 0.012117 0.491433
vt 0.443199 0.564309
vt 0.012117 0.524144
vt 0.443199 0.610382
vt 0.012117 0.564309
vt 0.443199 0.660594
vt 0.012117 0.610382
vt 0.443199 0.713016
vt 0.012117 0.660594
vt 0.443199 0.765633
vt 0.012117 0.713016
vt 0.443199 0.816421
vt 0.012117 0.765633
vt 0.443199 0.863431
vt 0.012117 0.816421
vt 0.443199 0.904856
vt 0.012117 0.863431
vt 0.443199 0.939102
vt 0.012117 0.904856
vt 0.443199 0.964855
vt 0.012117 0.939102
vt 0.443199 0.981125
vt 0.012117 0.964855
vt 0.443199 0.987286
vt 0.012117 0.981125
vt 0.556801 0.604053
vt 0.556801 0.592129
vt 0.987883 0.604053
vt 0.556801 0.574632
vt 0.987883 0.592129
vt 0.532568 0.443199
vt 0.509054 0.443199
vt 0.532568 0.012117
vt 0.476782 0.443199
vt 0.509054 0.012117
vt 0.476651 0.405180
vt 0.476651 0.049237
vt 0.436988 0.051311
vt 0.476781 0.012117
vt 0.436988 0.443199
vt 0.436988 0.403106
vt 0.391204 0.401540
vt 0.391203 0.052877
vt 0.436988 0.012117
vt 0.391204 0.443199
vt 0.341187 0.400548
vt 0.341187 0.053869
vt 0.391203 0.012117
vt 0.341187 0.443199
vt 0.288863 0.400168
vt 0.288863 0.054249
vt 0.341187 0.012117
vt 0.288863 0.443199
vt 0.236238 0.443199
vt 0.288863 0.012117
vt 0.236238 0.012117
vt 0.187557 0.404350
vt 0.206139 0.403161
vt 0.225264 0.400602
vt 0.236238 0.400416
vt 0.185338 0.443199
vt 0.185338 0.404441
vt 0.206139 0.051256
vt 0.187557 0.050068
vt 0.236238 0.054001
vt 0.225264 0.053815
vt 0.185338 0.049976
vt 0.185338 0.012117
vt 0.149831 0.405824
vt 0.158465 0.405544
vt 0.138118 0.443199
vt 0.138118 0.406067
vt 0.169183 0.405269
vt 0.169183 0.049148
vt 0.158465 0.048873
vt 0.138118 0.012117
vt 0.149831 0.048594
vt 0.138118 0.048350
vt 0.122081 0.049539
vt 0.122081 0.404878
vt 0.096392 0.443199
vt 0.127289 0.405915
vt 0.096392 0.012117
vt 0.127289 0.048502
vt 0.137988 0.406072
vt 0.137988 0.048345
vt 0.061764 0.443199
vt 0.035565 0.443199
vt 0.061764 0.012117
vt 0.018801 0.443199
vt 0.035565 0.012117
vt 0.012117 0.443199
vt 0.018801 0.012117
vt 0.874186 0.443199
vt 0.862262 0.443199
vt 0.874186 0.012117
vt 0.654843 0.476242
vt 0.645036 0.508712
vt 0.634140 0.532440
vt 0.622572 0.546516
vt 0.663182 0.436279
vt 0.610778 0.550399
vt 0.669735 0.390359
vt 0.599211 0.543938
vt 0.674248 0.340247
vt 0.588314 0.527382
vt 0.676549 0.287866
vt 0.578508 0.501368
vt 0.676549 0.235233
vt 0.570168 0.466895
vt 0.674248 0.184368
vt 0.563616 0.425289
vt 0.669735 0.137226
vt 0.559102 0.378147
vt 0.663182 0.095619
vt 0.556801 0.327282
vt 0.654843 0.061147
vt 0.556801 0.274648
vt 0.645036 0.035133
vt 0.559102 0.222269
vt 0.634140 0.018577
vt 0.563616 0.172155
vt 0.622572 0.012117
vt 0.570168 0.126235
vt 0.610778 0.015999
vt 0.578508 0.086272
vt 0.599211 0.030074
vt 0.588314 0.053803
vt 0.012117 0.467432
vt 0.844764 0.443199
vt 0.862261 0.012117
vt 0.789018 0.053803
vt 0.798824 0.086273
vt 0.778122 0.030075
vt 0.766554 0.015999
vt 0.807164 0.126236
vt 0.754760 0.012117
vt 0.813717 0.172156
vt 0.743192 0.018578
vt 0.818230 0.222269
vt 0.732296 0.035134
vt 0.820531 0.274649
vt 0.722489 0.061147
vt 0.820531 0.327283
vt 0.714150 0.095620
vt 0.818230 0.378148
vt 0.707597 0.137226
vt 0.813716 0.425289
vt 0.703084 0.184368
vt 0.807164 0.466896
vt 0.700783 0.235233
vt 0.798824 0.501368
vt 0.700783 0.287867
vt 0.789018 0.527382
vt 0.703084 0.340247
vt 0.778121 0.543938
vt 0.707597 0.390360
vt 0.766554 0.550399
vt 0.714150 0.436280
vt 0.754760 0.546516
vt 0.722489 0.476243
vt 0.743192 0.532441
vt 0.732296 0.508712
vt 0.012117 0.987286
vt 0.987883 0.574632
vt 0.012117 0.012117
vt 0.443199 0.467432
vt 0.844764 0.012117
vn 0.480897 0.000000 0.876777
vn -0.739403 0.000000 -0.673263
vn -0.581072 0.000000 -0.813852
vn -0.051286 -0.998170 0.032046
vn -0.051285 -0.998170 0.032047
vn -0.051286 -0.998170 0.032047
vn 0.052596 -0.991644 0.117794
vn -0.005401 -0.997826 0.065689
vn -0.023303 -0.998576 0.047995
vn -0.023307 -0.998575 0.048013
vn -0.042914 -0.998719 0.026816
vn -0.038038 -0.998751 0.032385
vn -0.045995 -0.998674 0.023106
vn -0.046119 -0.998678 0.022721
vn -0.079631 -0.996619 -0.020228
vn -0.190670 -0.966181 -0.173609
vn -0.051285 0.998170 0.032047
vn -0.051286 0.998170 0.032046
vn -0.051285 0.998170 0.032046
vn -0.051286 0.998170 0.032047
vn 0.052601 0.991643 0.117800
vn -0.005404 0.997826 0.065685
vn -0.023304 0.998575 0.048008
vn -0.023303 0.998575 0.048017
vn -0.042914 0.998719 0.026816
vn -0.038039 0.998751 0.032386
vn -0.045921 0.998681 0.022980
vn -0.046119 0.998678 0.022722
vn -0.079629 0.996619 -0.020224
vn -0.190677 0.966177 -0.173621
vn -0.848045 0.000000 0.529924
vn -0.081940 0.000000 0.996637
vn -0.897035 0.000000 0.441959
vn -0.436691 0.000000 0.899612
vn 0.407710 0.000000 0.913112
vn -0.969227 0.000000 -0.246166
vn -0.761415 0.000000 0.648265
vn 0.107809 0.000000 -0.994172
vn 0.299701 0.000000 -0.954033
vn 0.480052 0.000000 -0.877240
vn 0.641971 0.000000 -0.766729
vn 0.779222 0.000000 -0.626749
vn 0.886519 0.000000 -0.462692
vn 0.959753 0.000000 -0.280847
vn 0.996102 0.000000 -0.088211
vn 0.994172 0.000000 0.107805
vn 0.954036 0.000000 0.299692
vn 0.877238 0.000000 0.480056
vn 0.766731 0.000000 0.641968
vn 0.626746 0.000000 0.779224
vn 0.462691 0.000000 0.886520
vn 0.280859 0.000000 0.959749
vn 0.088207 0.000000 0.996102
vn -0.107806 0.000000 0.994172
vn -0.300289 0.000000 0.953848
vn -0.299694 0.000004 0.954036
vn -0.299695 0.000000 0.954035
vn -0.480056 0.000000 0.877238
vn -0.641978 0.000000 0.766723
vn -0.779215 0.000000 0.626757
vn -0.886520 0.000000 0.462691
vn -0.959753 0.000004 0.280844
vn -0.959752 0.000000 0.280848
vn -0.959752 0.000000 0.280847
vn -0.959753 -0.000005 0.280844
vn -0.996099 0.000014 0.088241
vn -0.996103 0.000000 0.088199
vn -0.996103 -0.000029 0.088195
vn -0.996099 -0.000017 0.088240
vn -0.996101 0.000000 0.088215
vn -0.994171 0.000000 -0.107817
vn -0.994172 0.000000 -0.107807
vn -0.994172 -0.000001 -0.107807
vn -0.994169 -0.000014 -0.107830
vn -0.994169 0.000013 -0.107830
vn -0.994171 0.000000 -0.107815
vn -0.954038 0.000000 -0.299685
vn -0.877233 0.000000 -0.480064
vn -0.766731 0.000000 -0.641968
vn -0.626754 0.000000 -0.779217
vn -0.462683 0.000000 -0.886524
vn 0.000000 1.000000 0.000007
vn 0.000000 1.000000 -0.000002
vn 0.000000 1.000000 0.000000
vn 0.000000 1.000000 0.000001
vn 0.000000 1.000000 -0.000001
vn 0.000000 1.000000 0.000002
vn 0.000000 1.000000 -0.000007
vn -0.088218 0.000000 -0.996101
vn -0.280850 0.000000 -0.959752
vn 0.000000 -1.000000 0.000009
vn 0.000000 -1.000000 -0.000002
vn 0.000000 -1.000000 0.000000
vn 0.000000 -1.000000 0.000001
vn 0.000000 -1.000000 -0.000001
vn 0.000000 -1.000000 0.000002
vn 0.000000 -1.000000 0.000006
vn 0.000000 -1.000000 -0.000009
vn 0.480898 0.000000 0.876777
vn 0.052599 -0.991643 0.117800
vn -0.005402 -0.997826 0.065687
vn -0.023306 -0.998575 0.048015
vn -0.038039 -0.998751 0.032386
vn -0.046119 -0.998678 0.022722
vn -0.079629 -0.996619 -0.020224
vn -0.190677 -0.966177 -0.173620
vn 0.052596 0.991644 0.117794
vn -0.005401 0.997826 0.065689
vn -0.023306 0.998575 0.048013
vn -0.042916 0.998719 0.026815
vn -0.038035 0.998751 0.032387
vn -0.046122 0.998677 0.022717
vn -0.079631 0.996619 -0.020225
vn -0.190669 0.966181 -0.173610
vn -0.848043 0.000000 0.529927
vn -0.897036 0.000000 0.441958
vn 0.407710 0.000000 0.913111
vn -0.969228 0.000000 -0.246166
vn -0.761414 0.000000 0.648266
vn 0.299700 0.000000 -0.954034
vn 0.480051 0.000000 -0.877240
vn 0.779222 0.000000 -0.626748
vn 0.877238 0.000000 0.480057
vn 0.626746 0.000000 0.779223
vn 0.462692 0.000000 0.886519
vn 0.280858 0.000000 0.959749
vn -0.107805 0.000000 0.994172
vn -0.300148 0.000000 0.953893
vn -0.299696 0.000000 0.954035
vn -0.299694 -0.000004 0.954035
vn -0.480055 0.000000 0.877238
vn -0.480055 0.000000 0.877239
vn -0.779215 0.000000 0.626756
vn -0.886520 0.000000 0.462690
vn -0.959751 0.000000 0.280852
vn -0.959756 0.000000 0.280834
vn -0.959751 0.000000 0.280853
vn -0.959755 0.000000 0.280838
vn -0.996099 0.000016 0.088240
vn -0.996099 -0.000014 0.088242
vn -0.996103 0.000028 0.088195
vn -0.994312 -0.001699 -0.106497
vn -0.994312 0.001656 -0.106496
vn -0.626753 0.000000 -0.779218
usemtl None
s off
f 1/1/1 2/2/1 4/3/1
f 48/1/2 49/2/2 43/3/2
f 49/1/3 48/2/3 52/3/3
f 4/1/4 18/2/4 16/4/4
f 4/1/5 17/2/5 18/4/5
f 4/1/4 15/2/4 17/4/4
f 16/1/5 13/2/5 4/4/5
f 4/1/6 14/2/6 15/4/6
f 13/1/5 1/2/5 4/4/5
f 4/1/7 12/2/7 14/3/7
f 12/1/8 21/2/8 22/3/8
f 26/1/9 21/2/9 32/4/9
f 21/1/10 25/2/10 32/3/10
f 31/1/11 25/2/11 36/3/11
f 36/1/12 30/2/12 40/3/12
f 39/1/13 46/2/13 45/4/13
f 40/1/14 35/2/14 45/3/14
f 46/1/15 39/2/15 50/3/15
f 50/1/16 44/2/16 52/3/16
f 3/1/17 10/2/17 9/4/17
f 3/1/17 8/2/17 10/4/17
f 9/1/18 6/2/18 3/4/18
f 3/1/19 5/2/19 8/4/19
f 6/1/20 7/2/20 3/4/20
f 3/1/17 2/2/17 5/4/17
f 19/1/21 11/2/21 7/3/21
f 23/1/22 20/2/22 19/3/22
f 20/1/23 23/2/23 28/4/23
f 27/1/24 24/2/24 28/3/24
f 29/1/25 24/2/25 33/3/25
f 34/1/26 29/2/26 37/3/26
f 38/1/27 41/2/27 42/4/27
f 38/1/28 34/2/28 41/3/28
f 43/1/29 38/2/29 47/3/29
f 48/1/30 43/2/30 51/3/30
f 29/1/31 30/2/31 24/3/31
f 20/1/32 21/2/32 11/3/32
f 38/1/33 39/2/33 34/3/33
f 24/1/34 25/2/34 20/3/34
f 11/1/35 12/2/35 3/3/35
f 43/1/36 44/2/36 38/3/36
f 34/1/37 35/2/37 29/3/37
f 55/5/38 56/6/38 54/7/38
f 56/6/39 60/8/39 53/9/39
f 60/8/40 64/10/40 59/11/40
f 64/10/41 68/12/41 63/13/41
f 68/12/42 72/14/42 67/15/42
f 72/14/43 76/16/43 71/17/43
f 76/16/44 80/18/44 75/19/44
f 80/18/45 84/20/45 79/21/45
f 84/20/46 88/22/46 83/23/46
f 88/22/47 92/24/47 87/25/47
f 92/24/48 96/26/48 91/27/48
f 96/26/49 100/28/49 95/29/49
f 100/28/50 104/30/50 99/31/50
f 104/32/51 108/33/51 103/34/51
f 108/33/52 112/35/52 107/36/52
f 112/37/53 116/38/53 111/39/53
f 116/38/54 113/40/54 115/41/54
f 2/42/55 1/43/55 113/40/55
f 1/43/56 13/44/56 114/45/56
f 110/46/57 5/47/57 113/40/57
f 5/47/58 110/46/58 8/48/58
f 13/44/58 16/49/58 109/50/58
f 8/48/59 106/51/59 10/52/59
f 16/49/59 18/53/59 105/54/59
f 10/52/60 102/55/60 9/56/60
f 18/53/60 17/57/60 101/58/60
f 98/59/61 94/60/61 9/56/61
f 97/61/61 17/57/61 93/62/61
f 94/60/62 23/63/62 19/64/62
f 7/65/63 6/66/63 94/60/63
f 94/60/64 90/67/64 28/68/64
f 93/62/65 22/69/65 26/70/65
f 93/62/63 15/71/63 14/72/63
f 32/73/64 89/74/64 93/62/64
f 37/75/66 33/76/66 85/77/66
f 85/77/67 41/78/67 37/75/67
f 27/79/68 28/68/68 85/77/68
f 31/80/69 36/81/69 86/82/69
f 40/83/67 45/84/67 86/82/67
f 89/74/70 32/73/70 86/82/70
f 52/85/71 51/86/71 82/87/71
f 51/86/72 47/88/72 82/87/72
f 81/89/73 50/90/73 52/85/73
f 47/88/74 42/91/74 82/87/74
f 81/89/75 46/92/75 50/90/75
f 81/89/76 86/82/76 45/84/76
f 41/78/76 85/77/76 82/87/76
f 82/87/77 78/93/77 81/89/77
f 78/93/78 74/94/78 77/95/78
f 74/94/79 70/96/79 73/97/79
f 70/96/80 66/98/80 69/99/80
f 66/100/81 62/101/81 65/102/81
f 56/103/82 55/104/82 58/105/82
f 56/103/83 58/105/83 62/106/83
f 56/103/83 62/106/83 60/107/83
f 62/106/84 66/108/84 60/107/84
f 66/108/84 64/109/84 60/107/84
f 66/108/84 70/110/84 64/109/84
f 70/110/84 68/111/84 64/109/84
f 70/110/84 74/112/84 68/111/84
f 74/112/84 72/113/84 68/111/84
f 74/112/84 78/114/84 72/113/84
f 78/114/84 76/115/84 72/113/84
f 78/114/84 82/116/84 76/115/84
f 82/116/84 80/117/84 76/115/84
f 82/116/84 85/118/84 80/117/84
f 85/118/84 84/119/84 80/117/84
f 85/118/84 90/120/84 84/119/84
f 90/120/84 88/121/84 84/119/84
f 90/120/84 94/122/84 88/121/84
f 94/122/84 92/123/84 88/121/84
f 94/122/84 98/124/84 92/123/84
f 98/124/85 96/125/85 92/123/85
f 98/124/86 102/126/86 96/125/86
f 102/126/85 100/127/85 96/125/85
f 102/126/85 106/128/85 100/127/85
f 106/128/84 104/129/84 100/127/84
f 106/128/84 110/130/84 104/129/84
f 110/130/83 108/131/83 104/129/83
f 110/130/84 113/132/84 108/131/84
f 113/132/87 112/133/87 108/131/87
f 113/132/88 116/134/88 112/133/88
f 54/7/89 57/135/89 55/5/89
f 62/101/90 58/136/90 61/137/90
f 54/138/91 53/139/91 57/140/91
f 53/139/92 61/141/92 57/140/92
f 53/139/93 59/142/93 61/141/93
f 59/142/94 65/143/94 61/141/94
f 59/142/93 63/144/93 65/143/93
f 63/144/95 69/145/95 65/143/95
f 63/144/96 67/146/96 69/145/96
f 67/146/93 73/147/93 69/145/93
f 67/146/94 71/148/94 73/147/94
f 71/148/95 77/149/95 73/147/95
f 71/148/93 75/150/93 77/149/93
f 75/150/93 81/151/93 77/149/93
f 75/150/93 79/152/93 81/151/93
f 79/152/94 86/153/94 81/151/94
f 79/152/95 83/154/95 86/153/95
f 83/154/93 89/155/93 86/153/93
f 83/154/94 87/156/94 89/155/94
f 87/156/93 93/157/93 89/155/93
f 87/156/93 91/158/93 93/157/93
f 91/158/95 97/159/95 93/157/95
f 91/158/94 95/160/94 97/159/94
f 95/160/95 101/161/95 97/159/95
f 95/160/93 99/162/93 101/161/93
f 99/162/94 105/163/94 101/161/94
f 99/162/95 103/164/95 105/163/95
f 103/164/93 109/165/93 105/163/93
f 103/164/92 107/166/92 109/165/92
f 107/166/95 114/167/95 109/165/95
f 107/166/97 111/168/97 114/167/97
f 111/168/98 115/169/98 114/167/98
f 2/2/99 3/4/99 4/3/99
f 49/2/2 44/4/2 43/3/2
f 48/2/3 51/4/3 52/3/3
f 12/2/100 22/4/100 14/3/100
f 21/2/101 26/4/101 22/3/101
f 25/2/102 31/4/102 32/3/102
f 25/2/11 30/4/11 36/3/11
f 30/2/103 35/4/103 40/3/103
f 35/2/104 39/4/104 45/3/104
f 39/2/105 44/4/105 50/3/105
f 44/2/106 49/4/106 52/3/106
f 11/2/107 3/4/107 7/3/107
f 20/2/108 11/4/108 19/3/108
f 24/2/109 20/4/109 28/3/109
f 24/2/110 27/4/110 33/3/110
f 29/2/111 33/4/111 37/3/111
f 34/2/112 37/4/112 41/3/112
f 38/2/113 42/4/113 47/3/113
f 43/2/114 47/4/114 51/3/114
f 30/2/115 25/4/115 24/3/115
f 21/2/32 12/4/32 11/3/32
f 39/2/116 35/4/116 34/3/116
f 25/2/34 21/4/34 20/3/34
f 12/2/117 4/4/117 3/3/117
f 44/2/118 39/4/118 38/3/118
f 35/2/119 30/4/119 29/3/119
f 56/6/38 53/9/38 54/7/38
f 60/8/120 59/11/120 53/9/120
f 64/10/121 63/13/121 59/11/121
f 68/12/41 67/15/41 63/13/41
f 72/14/122 71/17/122 67/15/122
f 76/16/43 75/19/43 71/17/43
f 80/18/44 79/21/44 75/19/44
f 84/20/45 83/23/45 79/21/45
f 88/22/46 87/25/46 83/23/46
f 92/24/47 91/27/47 87/25/47
f 96/26/123 95/29/123 91/27/123
f 100/28/49 99/31/49 95/29/49
f 104/30/124 103/170/124 99/31/124
f 108/33/125 107/36/125 103/34/125
f 112/35/126 111/171/126 107/36/126
f 116/38/53 115/41/53 111/39/53
f 113/40/127 114/45/127 115/41/127
f 1/43/128 114/45/128 113/40/128
f 13/44/129 109/50/129 114/45/129
f 5/47/130 2/42/130 113/40/130
f 110/46/131 106/51/131 8/48/131
f 16/49/132 105/54/132 109/50/132
f 106/51/59 102/55/59 10/52/59
f 18/53/59 101/58/59 105/54/59
f 102/55/133 98/59/133 9/56/133
f 17/57/133 97/61/133 101/58/133
f 94/60/134 6/66/134 9/56/134
f 17/57/61 15/71/61 93/62/61
f 19/64/135 7/65/135 94/60/135
f 23/63/136 94/60/136 28/68/136
f 22/69/137 93/62/137 14/72/137
f 26/70/138 32/73/138 93/62/138
f 33/76/139 27/79/139 85/77/139
f 28/68/70 90/67/70 85/77/70
f 36/81/140 40/83/140 86/82/140
f 32/73/141 31/80/141 86/82/141
f 81/89/71 52/85/71 82/87/71
f 46/92/142 81/89/142 45/84/142
f 42/91/143 41/78/143 82/87/143
f 78/93/77 77/95/77 81/89/77
f 74/94/78 73/97/78 77/95/78
f 70/96/79 69/99/79 73/97/79
f 66/98/144 65/172/144 69/99/144
f 62/101/81 61/137/81 65/102/81
f 57/135/89 58/173/89 55/5/89
f 58/136/90 57/174/90 61/137/90
