# Blender v2.69 (sub 0) OBJ File: 'all.blend'
# www.blender.org
mtllib splashboard.mtl
o Cube.008_Cube
v -11.829901 4.471200 21.110712
v -11.829901 4.471200 19.110712
v 12.170099 4.471200 19.110712
v 12.170099 4.471200 21.110712
v -11.829901 23.430183 21.110712
v -11.829901 23.430183 19.110712
v 12.170099 23.430183 19.110712
v 12.170099 23.430183 21.110712
vt 0.652905 0.319572
vt 0.347095 0.319572
vt 0.652905 0.013761
vt 0.013762 0.652905
vt 0.013761 0.347095
vt 0.319572 0.652905
vt 0.013762 0.319572
vt 0.013761 0.013762
vt 0.319572 0.319572
vt 0.347095 0.652905
vt 0.347095 0.347095
vt 0.652905 0.652905
vt 0.986238 0.319572
vt 0.680428 0.319572
vt 0.986238 0.013762
vt 0.680428 0.347095
vt 0.986238 0.347095
vt 0.680428 0.652905
vt 0.347095 0.013762
vt 0.319572 0.347095
vt 0.319572 0.013761
vt 0.652905 0.347095
vt 0.680428 0.013762
vt 0.986239 0.652905
vn -1.000000 0.000000 0.000000
vn 0.000000 0.000000 -1.000000
vn 1.000000 0.000000 0.000000
vn 0.000000 0.000000 1.000000
vn 0.000000 -1.000000 0.000000
vn 0.000000 1.000000 0.000000
usemtl Material
s off
f 5/1/1 6/2/1 1/3/1
f 6/4/2 7/5/2 2/6/2
f 7/7/3 8/8/3 3/9/3
f 8/10/4 5/11/4 4/12/4
f 1/13/5 2/14/5 4/15/5
f 8/16/6 7/17/6 5/18/6
f 6/2/1 2/19/1 1/3/1
f 7/5/2 3/20/2 2/6/2
f 8/8/3 4/21/3 3/9/3
f 5/11/4 1/22/4 4/12/4
f 2/14/5 3/23/5 4/15/5
f 7/17/6 6/24/6 5/18/6
