# Blender v2.69 (sub 0) OBJ File: 'all.blend'
# www.blender.org
mtllib tail.mtl
o Cube.006_Cube.023
v 10.218517 5.028277 -8.311027
v 14.446358 7.282440 -8.533541
v 9.594849 6.219182 -8.096557
v 13.822689 8.473345 -8.319071
v 7.712379 3.937413 -0.900496
v 8.336048 2.746509 -1.114965
v 8.896214 4.366511 0.159360
v 9.519883 3.175606 -0.055109
v 7.388460 4.740230 -6.300324
v 8.483211 2.397106 1.253138
v 8.456511 3.697441 2.595934
v 10.392798 4.192959 -3.165866
v 7.859542 3.588011 1.467607
v 8.012129 3.549325 -6.514794
v 9.769130 5.383864 -2.951396
v 9.080180 2.506536 2.381465
v 7.065092 4.759745 -7.349032
v 9.438310 1.831275 3.423101
v 8.624546 3.581093 3.730631
v 13.437016 5.500186 -1.572164
v 7.688761 3.568840 -7.563502
v 12.813347 6.691091 -1.357695
v 8.718879 4.582485 -1.555588
v 9.237432 2.831767 1.032799
v 9.380404 4.334720 1.743894
v 11.083072 3.978742 0.030933
v 8.613763 4.022672 1.247268
v 9.342547 3.391580 -1.770057
v 10.459403 5.169646 0.245402
v 10.004072 3.143815 1.529425
v 8.946591 2.239208 3.477414
v 8.322923 3.430113 3.691883
v 9.162042 2.355400 3.458744
v 8.538373 3.546305 3.673213
v 9.346166 1.762530 3.536875
v 8.532402 3.512348 3.844404
vt 0.010428 0.900389
vt 0.010398 0.563580
vt 0.241472 0.900513
vt 0.010428 0.010398
vt 0.241442 0.563703
vt 0.660141 0.010398
vt 0.660141 0.347563
vt 0.616340 0.701726
vt 0.536556 0.209734
vt 0.574509 0.010398
vt 0.580358 0.563896
vt 0.960298 0.241465
vt 0.862972 0.241465
vt 0.960298 0.010400
vt 0.465076 0.840452
vt 0.262268 0.840453
vt 0.465076 0.609387
vt 0.608571 0.128738
vt 0.622321 0.032084
vt 0.604452 0.223882
vt 0.524668 0.687578
vt 0.534509 0.735306
vt 0.542538 0.879376
vt 0.680937 0.010398
vt 0.809862 0.010400
vt 0.680937 0.241463
vt 0.809246 0.745279
vt 0.680937 0.745280
vt 0.809246 0.514214
vt 0.624359 0.169709
vt 0.653624 0.042366
vt 0.611171 0.379165
vt 0.531387 0.532295
vt 0.550758 0.591215
vt 0.573840 0.869093
vt 0.889839 0.514483
vt 0.901010 0.514214
vt 0.901010 0.845681
vt 0.262268 0.392020
vt 0.262270 0.010398
vt 0.493333 0.392022
vt 0.887931 0.846110
vt 0.869397 0.746390
vt 0.897642 0.745481
vt 0.842176 0.010400
vt 0.842176 0.241465
vt 0.939511 0.493305
vt 0.839119 0.493367
vt 0.939511 0.262261
vt 0.981555 0.997345
vt 0.921806 0.997120
vt 0.981555 0.766301
vt 0.608585 0.028241
vt 0.521370 0.816346
vt 0.528802 0.883219
vt 0.818323 0.493305
vt 0.680937 0.493418
vt 0.818323 0.262261
vt 0.729067 0.997223
vt 0.680937 0.997120
vt 0.729067 0.766179
vt 0.262270 0.588589
vt 0.493335 0.588591
vt 0.989602 0.745280
vt 0.921806 0.745279
vt 0.989602 0.514215
vt 0.514131 0.818593
vt 0.515096 0.816149
vt 0.515353 0.844427
vt 0.010398 0.947168
vt 0.010398 0.921308
vt 0.241463 0.921310
vt 0.862081 0.515462
vt 0.890326 0.514553
vt 0.010398 0.960234
vt 0.341724 0.936682
vt 0.241472 0.010521
vt 0.654293 0.901062
vt 0.580358 0.901062
vt 0.862972 0.010399
vt 0.262268 0.609387
vt 0.614292 0.176154
vt 0.528787 0.782721
vt 0.809862 0.241465
vt 0.680937 0.514215
vt 0.630541 0.320245
vt 0.544575 0.741751
vt 0.897154 0.745411
vt 0.493335 0.010400
vt 0.830042 0.747479
vt 0.839119 0.262323
vt 0.921806 0.766076
vt 0.601154 0.095114
vt 0.680937 0.262374
vt 0.680937 0.766076
vt 0.921806 0.514214
vt 0.514624 0.805470
vt 0.341724 0.949748
vn -0.293186 0.018603 -0.955874
vn -0.114625 0.117616 -0.986422
vn 0.458133 -0.874811 -0.157544
vn -0.458132 0.874811 0.157544
vn -0.800348 -0.483081 0.355071
vn 0.029132 -0.162366 0.986301
vn 0.458131 -0.874812 -0.157544
vn -0.458132 0.874811 0.157545
vn -0.846934 -0.483407 0.221408
vn 0.600206 0.173718 0.780753
vn 0.458133 -0.874811 -0.157545
vn -0.458133 0.874811 0.157544
vn 0.897149 0.432775 -0.088481
vn -0.323207 -0.329050 0.887278
vn -0.013222 -0.134679 -0.990801
vn -0.838641 -0.484138 0.249585
vn 0.458132 -0.874811 -0.157544
vn -0.290919 0.019910 -0.956540
vn 0.863572 0.480036 -0.154301
vn -0.494946 -0.103837 -0.862697
vn 0.839491 0.484084 -0.246813
vn -0.458132 0.874812 0.157543
vn 0.877933 0.417590 0.234205
vn -0.838817 -0.484127 0.249013
vn -0.458131 0.874812 0.157547
vn -0.443143 -0.378422 0.812663
vn -0.141091 0.103423 -0.984580
vn 0.697136 0.203379 0.687487
vn -0.293186 0.018604 -0.955874
vn -0.800349 -0.483081 0.355071
vn -0.846933 -0.483407 0.221408
vn 0.600206 0.173719 0.780752
vn 0.458132 -0.874812 -0.157544
vn 0.885615 0.464407 -0.003426
vn -0.323207 -0.329051 0.887278
vn 0.871449 -0.216633 -0.440052
vn 0.248643 -0.904916 -0.345403
vn -0.926535 -0.250792 0.280422
vn -0.838640 -0.484138 0.249585
vn -0.458132 0.874811 0.157543
vn 0.863573 0.480035 -0.154301
vn -0.494946 -0.103838 -0.862697
vn 0.839492 0.484084 -0.246813
vn 0.877934 0.417589 0.234205
vn -0.838817 -0.484127 0.249012
vn -0.458133 0.874811 0.157543
vn -0.458130 0.874812 0.157543
vn -0.576452 -0.393905 0.715920
vn -0.141094 0.103423 -0.984579
vn 0.697133 0.203383 0.687489
usemtl None
s off
f 17/1/1 3/2/1 21/3/1
f 3/2/2 4/4/2 1/5/2
f 21/6/3 1/7/3 20/8/3
f 22/9/4 4/10/4 3/11/4
f 27/12/5 5/13/5 24/14/5
f 29/15/6 7/16/6 26/17/6
f 24/18/7 6/19/7 30/20/7
f 25/21/8 7/22/8 5/23/8
f 23/24/9 9/25/9 28/26/9
f 25/27/10 11/28/10 30/29/10
f 28/30/11 14/31/11 26/32/11
f 29/33/12 15/34/12 9/35/12
f 11/36/13 19/37/13 18/38/13
f 22/39/14 15/40/14 20/41/14
f 35/42/15 31/43/15 33/44/15
f 9/25/16 17/45/16 21/46/16
f 14/31/17 21/6/17 20/8/17
f 15/34/4 22/9/4 9/35/4
f 13/47/18 27/48/18 10/49/18
f 15/50/19 29/51/19 12/52/19
f 10/53/17 24/18/17 30/20/17
f 11/54/4 25/21/4 13/55/4
f 5/56/20 23/57/20 6/58/20
f 7/59/21 25/60/21 8/61/21
f 6/19/3 28/30/3 26/32/3
f 7/22/22 29/33/22 5/23/22
f 4/62/23 22/39/23 2/63/23
f 34/64/24 13/65/24 33/66/24
f 36/67/25 34/68/25 32/69/25
f 36/70/26 32/71/26 31/72/26
f 32/73/27 34/74/27 31/43/27
f 19/75/28 36/70/28 35/76/28
f 3/2/29 1/5/29 21/3/29
f 4/4/2 2/77/2 1/5/2
f 1/7/17 2/78/17 20/8/17
f 17/79/12 22/9/12 3/11/12
f 5/13/30 6/80/30 24/14/30
f 7/16/6 8/81/6 26/17/6
f 6/19/17 8/82/17 30/20/17
f 27/83/4 25/21/4 5/23/4
f 9/25/31 14/84/31 28/26/31
f 11/28/32 16/85/32 30/29/32
f 14/31/33 12/86/33 26/32/33
f 23/87/4 29/33/4 9/35/4
f 16/88/34 11/36/34 18/38/34
f 15/40/35 12/89/35 20/41/35
f 16/88/36 18/38/36 10/90/36
f 18/38/37 35/42/37 10/90/37
f 35/42/38 33/44/38 10/90/38
f 14/84/39 9/25/39 21/46/39
f 12/86/17 14/31/17 20/8/17
f 22/9/40 17/79/40 9/35/40
f 27/48/18 24/91/18 10/49/18
f 29/51/41 26/92/41 12/52/41
f 16/93/3 10/53/3 30/20/3
f 25/21/22 27/83/22 13/55/22
f 23/57/42 28/94/42 6/58/42
f 25/60/43 30/95/43 8/61/43
f 8/82/17 6/19/17 26/32/17
f 29/33/12 23/87/12 5/23/12
f 22/39/44 20/41/44 2/63/44
f 13/65/45 10/96/45 33/66/45
f 36/67/12 19/97/12 34/68/12
f 19/97/46 11/54/46 13/55/46
f 34/68/47 19/97/47 13/55/47
f 35/76/48 36/70/48 31/72/48
f 34/74/49 33/44/49 31/43/49
f 18/98/50 19/75/50 35/76/50
