# Blender v2.69 (sub 0) OBJ File: ''
# www.blender.org
mtllib topcurve.mtl
o Cube.003_Cube.006
v 11.941436 0.302532 -19.347548
v 12.208968 -0.058398 -19.019386
v 11.941436 -0.058398 -19.347548
v 11.941436 1.941602 -19.347548
v 12.208968 1.941602 -19.019386
v 11.979655 -0.058398 -12.415410
v 10.948241 -0.058398 -19.347548
v 10.948241 1.941602 -19.347548
v 11.979655 1.941602 -12.415410
v 10.525282 -0.058398 -14.199383
v 10.681335 -0.058398 -19.347548
v 10.525282 1.941602 -14.199383
v 10.681335 1.941602 -19.347548
v 9.593600 -0.058397 -19.347548
v 9.593600 1.941602 -19.347548
v 8.864083 -0.058397 -15.775099
v 8.954695 -0.058397 -19.347548
v 8.954695 1.941603 -19.347548
v 8.864083 1.941603 -15.775099
v 8.116830 -0.058397 -19.347548
v 8.116830 1.941603 -19.347548
v 7.059595 -0.058397 -17.066090
v 7.105371 -0.058397 -19.347548
v 7.105371 1.941603 -19.347548
v 7.059597 1.941603 -17.066088
v 6.519902 -0.058397 -19.347548
v 6.519903 1.941603 -19.347548
v 5.141339 -0.058397 -18.051233
v 5.160121 -0.058397 -19.347548
v 5.141340 1.941603 -18.051231
v 5.160121 1.941603 -19.347548
v 4.800624 -0.058397 -19.347548
v 4.800624 1.941603 -19.347548
v 3.140693 -0.058397 -18.714415
v 3.146212 -0.058397 -19.347548
v 3.140693 1.941603 -18.714415
v 3.146212 1.941603 -19.347548
v 2.958591 -0.058397 -19.347548
v 2.958591 1.941603 -19.347548
v 1.090385 -0.058397 -19.044785
v 1.091241 -0.058397 -19.347548
v 1.090386 1.941603 -19.044785
v 1.091242 1.941603 -19.347548
v -0.879934 -0.058397 -19.347548
v -0.976043 -0.058397 -19.036942
v -0.879934 1.941603 -19.347548
v -0.976043 1.941603 -19.036942
v -0.977006 -0.058397 -19.347548
v -0.977006 1.941603 -19.347548
v -3.024790 -0.058397 -18.691011
v -2.836684 -0.058397 -19.347548
v -2.836683 1.941603 -19.347548
v -3.024789 1.941603 -18.691011
v -3.030690 -0.058397 -19.347548
v -3.030689 1.941603 -19.347548
v -5.022337 -0.058397 -18.012653
v -4.673066 -0.058397 -19.347548
v -4.673065 1.941603 -19.347548
v -5.022336 1.941603 -18.012653
v -5.042028 -0.058397 -19.347548
v -5.042028 1.941603 -19.347548
v -6.936010 -0.058397 -17.012964
v -6.386656 -0.058397 -19.347548
v -6.386657 1.941603 -19.347548
v -6.936010 1.941603 -17.012964
v -6.983438 -0.058397 -19.347548
v -6.983438 1.941603 -19.347548
v -7.977966 -0.058397 -19.347548
v -8.734504 -0.058397 -15.708298
v -7.977966 1.941603 -19.347548
v -8.734503 1.941602 -15.708300
v -8.827673 -0.058397 -19.347548
v -8.827673 1.941603 -19.347548
v -9.449247 -0.058398 -19.347548
v -10.388394 -0.058398 -14.119997
v -9.449248 1.941602 -19.347548
v -10.388394 1.941602 -14.119997
v -10.548001 -0.058398 -19.347548
v -10.548001 1.941602 -19.347548
v -11.870631 -0.058398 -12.274046
v -10.803624 -0.058398 -19.347548
v -10.803624 1.941602 -19.347548
v -11.870631 1.941602 -12.274046
v -12.101890 -0.058398 -18.875290
v -11.722683 -0.058398 -19.347548
v -12.101890 1.941602 -18.875290
v -11.722683 1.941602 -19.347548
v -12.317127 -0.058398 -11.551888
v -11.722683 1.439627 -19.347548
v -12.317127 1.941602 -11.551888
v -12.317127 -0.058398 -18.527168
v -12.317127 1.941602 -18.527168
vt 0.341073 0.961468
vt 0.326464 0.972297
vt 0.326464 0.961468
vt 0.502940 0.321024
vt 0.583892 0.321024
vt 0.502940 0.579530
vt 0.591177 0.490867
vt 0.672129 0.490867
vt 0.591177 0.524082
vt 0.319179 0.945328
vt 0.038595 0.987076
vt 0.319179 0.934525
vt 0.965011 0.028279
vt 0.697819 0.018941
vt 0.994240 0.010204
vt 0.583892 0.291156
vt 0.502940 0.291156
vt 0.583892 0.275220
vt 0.563574 0.313738
vt 0.583892 0.313738
vt 0.495654 0.062245
vt 0.414702 0.062245
vt 0.495654 0.003643
vt 0.495654 0.129250
vt 0.414702 0.129250
vt 0.495654 0.202097
vt 0.414702 0.202097
vt 0.495654 0.279593
vt 0.414702 0.279593
vt 0.495654 0.360473
vt 0.414702 0.360473
vt 0.495654 0.443411
vt 0.414702 0.443411
vt 0.495654 0.527052
vt 0.414702 0.527052
vt 0.495654 0.610027
vt 0.414702 0.610027
vt 0.495654 0.690980
vt 0.414702 0.690980
vt 0.495654 0.768585
vt 0.414702 0.768585
vt 0.495654 0.841573
vt 0.414702 0.841573
vt 0.672129 0.401963
vt 0.591177 0.401963
vt 0.672129 0.321024
vt 0.285973 0.003643
vt 0.300064 0.012355
vt 0.003643 0.003643
vt 0.319179 0.064903
vt 0.032873 0.021715
vt 0.319179 0.027703
vt 0.319179 0.119723
vt 0.107589 0.081710
vt 0.319179 0.075250
vt 0.319179 0.179274
vt 0.171877 0.148653
vt 0.319179 0.144881
vt 0.319179 0.243684
vt 0.224685 0.221448
vt 0.319179 0.219528
vt 0.319179 0.313043
vt 0.265148 0.298906
vt 0.319179 0.298109
vt 0.319179 0.387372
vt 0.292605 0.379758
vt 0.319179 0.379519
vt 0.319179 0.466573
vt 0.306607 0.462683
vt 0.319179 0.462644
vt 0.319179 0.621940
vt 0.293552 0.629311
vt 0.319179 0.546358
vt 0.319179 0.696498
vt 0.266709 0.710289
vt 0.319179 0.629534
vt 0.319179 0.766087
vt 0.226835 0.787932
vt 0.319179 0.711049
vt 0.319179 0.830724
vt 0.174581 0.860970
vt 0.319179 0.789785
vt 0.110803 0.928209
vt 0.319179 0.890498
vt 0.678782 0.951916
vt 0.959370 0.993640
vt 0.678785 0.992116
vt 0.678778 0.897086
vt 0.887157 0.934779
vt 0.678781 0.941113
vt 0.678773 0.837312
vt 0.823373 0.867546
vt 0.678775 0.871226
vt 0.678767 0.772675
vt 0.771113 0.794512
vt 0.678769 0.796373
vt 0.678761 0.703086
vt 0.731232 0.716872
vt 0.678763 0.717637
vt 0.678755 0.628528
vt 0.704382 0.635897
vt 0.678756 0.636122
vt 0.678742 0.473161
vt 0.691314 0.469270
vt 0.678749 0.552946
vt 0.678736 0.393960
vt 0.705309 0.386344
vt 0.678742 0.469232
vt 0.678729 0.319631
vt 0.732759 0.305489
vt 0.678735 0.386107
vt 0.678724 0.250272
vt 0.773216 0.228028
vt 0.678728 0.304697
vt 0.678718 0.185862
vt 0.826017 0.155228
vt 0.678722 0.226116
vt 0.678713 0.126311
vt 0.890300 0.088280
vt 0.678715 0.151469
vt 0.678709 0.071491
vt 0.678710 0.081838
vt 0.502940 0.275220
vt 0.502940 0.003643
vt 0.407416 0.961468
vt 0.583892 0.579530
vt 0.672129 0.524082
vt 0.305896 0.996357
vt 0.319179 0.985529
vt 0.711909 0.010228
vt 0.502940 0.313738
vt 0.414703 0.003643
vt 0.591177 0.321024
vt 0.306924 0.546323
vt 0.319179 0.864638
vt 0.691004 0.552910
vt 0.678706 0.034291
vt 0.583892 0.003643
vt 0.326464 0.522297
vt 0.326464 0.442512
vt 0.407416 0.765724
vt 0.326464 0.605474
vt 0.326464 0.597880
vt 0.326464 0.672438
vt 0.326464 0.288982
vt 0.326464 0.274048
vt 0.326464 0.686989
vt 0.326464 0.219623
vt 0.326464 0.195468
vt 0.326464 0.155213
vt 0.326464 0.120821
vt 0.326464 0.095662
vt 0.326464 0.840577
vt 0.326464 0.806664
vt 0.326464 0.866437
vt 0.326464 0.051189
vt 0.407416 0.442512
vt 0.407416 0.522297
vt 0.407416 0.910464
vt 0.326464 0.910464
vt 0.407416 0.155213
vt 0.407416 0.438583
vt 0.407416 0.597880
vt 0.407416 0.742027
vt 0.407416 0.195468
vt 0.000000 0.000000
vt 0.407416 0.040843
vt 0.407416 0.051189
vt 0.407416 0.806664
vt 0.407416 0.866437
vt 0.326464 0.438583
vt 0.326464 0.363311
vt 0.326464 0.765724
vt 0.326464 0.742027
vt 0.326464 0.355459
vt 0.407416 0.219623
vt 0.407416 0.363311
vt 0.407416 0.095662
vt 0.407416 0.120821
vt 0.326464 0.921268
vt 0.326464 0.040843
vt 0.407416 0.921268
vt 0.326464 0.003643
vt 0.387098 0.003643
vt 0.407416 0.003643
vt 0.692069 1.002944
vt 0.407416 0.972297
vn 0.775072 0.000000 -0.631873
vn 0.999398 0.000000 0.034703
vn 0.850557 0.000000 0.525882
vn -0.000000 -1.000000 -0.000000
vn -0.000000 1.000000 -0.000000
vn -0.850556 0.000000 -0.525884
vn -0.779740 0.000000 -0.626103
vn -0.775072 0.000000 0.631873
vn -0.688193 0.000000 0.725528
vn -0.581856 -0.000000 0.813292
vn -0.456838 -0.000000 0.889550
vn -0.314647 0.000000 0.949209
vn -0.159079 0.000000 0.987266
vn 0.003795 0.000000 0.999993
vn 0.166492 -0.000000 0.986043
vn 0.321560 -0.000000 0.946889
vn 0.463023 0.000000 0.886346
vn 0.587191 0.000000 0.809448
vn 0.692661 0.000000 0.721263
vn 0.779739 0.000000 0.626104
vn -1.000000 0.000000 0.000000
vn 0.775071 0.000000 -0.631874
vn 0.850557 0.000000 0.525883
vn -0.000001 1.000000 0.000000
vn -0.779738 0.000000 -0.626106
vn -0.581855 0.000000 0.813292
vn -0.456840 -0.000000 0.889549
vn -0.314649 -0.000001 0.949208
vn -0.159081 0.000000 0.987266
vn 0.166494 0.000000 0.986043
vn 0.321559 -0.000000 0.946890
vn 0.463021 -0.000000 0.886347
vn 0.587191 0.000000 0.809449
vn 0.692660 0.000001 0.721265
vn 0.779739 0.000000 0.626105
vn 0.000000 1.000000 0.000001
vn 0.000000 0.000000 -1.000000
vn -0.000001 0.000000 -1.000000
vn 0.000001 0.000000 -1.000000
vn -0.000003 0.000000 -1.000000
vn 0.000006 0.000000 -1.000000
vn 0.000000 0.000000 1.000000
vn -0.000002 0.000000 1.000000
vn 0.000002 0.000000 -1.000000
vn -0.000004 0.000000 -1.000000
vn 0.000015 0.000000 -1.000000
vn -0.000002 0.000000 -1.000000
vn 0.000000 1.000000 -0.000001
vn 0.775073 0.000000 -0.631872
vn -0.779740 0.000000 -0.626104
vn 1.000000 0.000000 0.000000
usemtl None.001
s off
f 1/1/1 2/2/1 3/3/1
f 9/4/2 6/5/2 5/6/2
f 80/7/3 83/8/3 88/9/3
f 7/10/4 6/11/4 11/12/4
f 83/13/5 86/14/5 90/15/5
f 86/16/6 84/17/6 92/18/6
f 89/19/7 86/16/7 87/20/7
f 12/21/8 10/22/8 9/23/8
f 19/24/9 16/25/9 12/21/9
f 25/26/10 22/27/10 19/24/10
f 30/28/11 28/29/11 25/26/11
f 36/30/12 34/31/12 30/28/12
f 42/32/13 40/33/13 36/30/13
f 47/34/14 45/35/14 42/32/14
f 53/36/15 50/37/15 47/34/15
f 59/38/16 56/39/16 53/36/16
f 65/40/17 62/41/17 59/38/17
f 71/42/18 69/43/18 65/40/18
f 77/44/19 75/45/19 71/46/19
f 83/8/20 80/7/20 77/44/20
f 91/47/4 84/48/4 88/49/4
f 81/50/4 80/51/4 85/52/4
f 74/53/4 75/54/4 78/55/4
f 68/56/4 69/57/4 72/58/4
f 63/59/4 62/60/4 66/61/4
f 57/62/4 56/63/4 60/64/4
f 51/65/4 50/66/4 54/67/4
f 44/68/4 45/69/4 48/70/4
f 38/71/4 34/72/4 41/73/4
f 32/74/4 28/75/4 35/76/4
f 26/77/4 22/78/4 29/79/4
f 20/80/4 16/81/4 23/82/4
f 11/12/4 10/83/4 14/84/4
f 8/85/5 9/86/5 4/87/5
f 15/88/5 12/89/5 13/90/5
f 21/91/5 19/92/5 18/93/5
f 27/94/5 25/95/5 24/96/5
f 33/97/5 30/98/5 31/99/5
f 39/100/5 36/101/5 37/102/5
f 46/103/5 47/104/5 43/105/5
f 52/106/5 53/107/5 49/108/5
f 58/109/5 59/110/5 55/111/5
f 64/112/5 65/113/5 61/114/5
f 70/115/5 71/116/5 67/117/5
f 76/118/5 77/119/5 73/120/5
f 82/121/5 83/13/5 79/122/5
f 91/123/21 88/124/21 92/18/21
f 1/1/22 4/125/22 2/2/22
f 6/5/2 2/126/2 5/6/2
f 83/8/23 90/127/23 88/9/23
f 2/128/4 6/11/4 3/129/4
f 86/14/24 92/130/24 90/15/24
f 84/17/6 91/123/6 92/18/6
f 84/17/25 86/16/25 85/131/25
f 10/22/8 6/132/8 9/23/8
f 16/25/9 10/22/9 12/21/9
f 22/27/26 16/25/26 19/24/26
f 28/29/27 22/27/27 25/26/27
f 34/31/28 28/29/28 30/28/28
f 40/33/29 34/31/29 36/30/29
f 45/35/14 40/33/14 42/32/14
f 50/37/30 45/35/30 47/34/30
f 56/39/31 50/37/31 53/36/31
f 62/41/32 56/39/32 59/38/32
f 69/43/33 62/41/33 65/40/33
f 75/45/34 69/133/34 71/46/34
f 80/7/35 75/45/35 77/44/35
f 84/48/4 80/51/4 88/49/4
f 75/54/4 80/51/4 78/55/4
f 69/57/4 75/54/4 72/58/4
f 62/60/4 69/57/4 66/61/4
f 56/63/4 62/60/4 60/64/4
f 50/66/4 56/63/4 54/67/4
f 45/69/4 50/66/4 48/70/4
f 40/134/4 45/69/4 41/73/4
f 35/76/4 34/72/4 38/71/4
f 29/79/4 28/75/4 32/74/4
f 23/82/4 22/78/4 26/77/4
f 17/135/4 16/81/4 20/80/4
f 14/84/4 10/83/4 17/135/4
f 12/89/5 9/86/5 13/90/5
f 19/92/5 12/89/5 18/93/5
f 25/95/5 19/92/5 24/96/5
f 30/98/5 25/95/5 31/99/5
f 36/101/5 30/98/5 37/102/5
f 42/136/36 36/101/36 43/105/36
f 49/108/36 47/104/36 46/103/36
f 55/111/5 53/107/5 52/106/5
f 61/114/5 59/110/5 58/109/5
f 67/117/5 65/113/5 64/112/5
f 73/120/5 71/116/5 70/115/5
f 79/122/5 77/119/5 76/118/5
f 86/14/5 83/13/5 87/137/5
f 88/124/21 90/138/21 92/18/21
f 41/139/37 44/140/37 24/141/37
f 35/142/37 38/143/37 24/141/37
f 24/141/38 32/144/38 35/142/38
f 57/145/37 60/146/37 24/141/37
f 24/141/39 29/147/39 32/144/39
f 60/146/40 63/148/40 24/141/40
f 66/149/37 68/150/37 24/141/37
f 72/151/41 74/152/41 24/141/41
f 17/153/37 20/154/37 24/141/37
f 24/141/40 14/155/40 17/153/40
f 78/156/37 46/157/37 43/158/37
f 24/141/39 13/159/39 11/160/39
f 78/156/37 70/161/37 49/162/37
f 43/158/42 39/163/42 27/164/42
f 70/161/37 67/165/37 49/162/37
f 64/166/42 61/166/42 58/166/42
f 78/156/37 82/167/37 79/168/37
f 21/169/43 15/170/43 13/159/43
f 48/171/37 51/172/37 24/141/37
f 24/141/44 23/173/44 26/174/44
f 24/141/39 26/174/39 29/147/39
f 54/175/44 57/145/44 24/141/44
f 64/176/42 52/177/42 49/162/42
f 39/166/42 37/166/42 33/166/42
f 58/166/37 55/166/37 52/166/37
f 33/166/42 31/166/42 27/166/42
f 76/178/42 73/179/42 79/168/42
f 21/166/37 18/166/37 15/166/37
f 13/159/45 1/1/45 7/180/45
f 78/156/46 81/181/46 82/167/46
f 8/182/37 1/1/37 13/159/37
f 74/152/37 78/156/37 24/141/37
f 1/1/47 3/3/47 7/180/47
f 4/125/44 1/1/44 8/182/44
f 81/181/40 85/183/40 89/184/40
f 89/184/44 87/185/44 82/167/44
f 6/11/4 10/83/4 11/12/4
f 80/51/4 84/48/4 85/52/4
f 34/72/4 40/134/4 41/73/4
f 28/75/4 34/72/4 35/76/4
f 22/78/4 28/75/4 29/79/4
f 16/81/4 22/78/4 23/82/4
f 9/86/5 5/186/5 4/87/5
f 47/104/48 42/136/48 43/105/48
f 53/107/5 47/104/5 49/108/5
f 59/110/5 53/107/5 55/111/5
f 65/113/5 59/110/5 61/114/5
f 71/116/5 65/113/5 67/117/5
f 77/119/5 71/116/5 73/120/5
f 83/13/5 77/119/5 79/122/5
f 4/125/49 5/187/49 2/2/49
f 6/11/4 7/10/4 3/129/4
f 86/16/50 89/19/50 85/131/50
f 80/51/4 81/50/4 78/55/4
f 75/54/4 74/53/4 72/58/4
f 69/57/4 68/56/4 66/61/4
f 62/60/4 63/59/4 60/64/4
f 56/63/4 57/62/4 54/67/4
f 50/66/4 51/65/4 48/70/4
f 45/69/4 44/68/4 41/73/4
f 10/83/4 16/81/4 17/135/4
f 9/86/5 8/85/5 13/90/5
f 12/89/5 15/88/5 18/93/5
f 19/92/5 21/91/5 24/96/5
f 25/95/5 27/94/5 31/99/5
f 30/98/5 33/97/5 37/102/5
f 36/101/5 39/100/5 43/105/5
f 83/13/5 82/121/5 87/137/5
f 44/140/37 48/171/37 24/141/37
f 38/143/37 41/139/37 24/141/37
f 63/148/37 66/149/37 24/141/37
f 68/150/37 72/151/37 24/141/37
f 20/154/37 23/173/37 24/141/37
f 24/141/37 78/156/37 43/158/37
f 14/155/37 24/141/37 11/160/37
f 46/157/37 78/156/37 49/162/37
f 24/141/37 43/158/37 27/164/37
f 67/165/51 64/176/51 49/162/51
f 52/166/42 64/166/42 58/166/42
f 70/161/37 78/156/37 79/168/37
f 24/141/37 21/169/37 13/159/37
f 51/172/37 54/175/37 24/141/37
f 27/166/42 39/166/42 33/166/42
f 73/179/42 70/161/42 79/168/42
f 11/160/37 13/159/37 7/180/37
f 81/181/39 89/184/39 82/167/39
