# Blender v2.69 (sub 0) OBJ File: ''
# www.blender.org
mtllib topcurve.mtl
o Cube.003_Cube.006
v 10.726509 -0.058400 -14.505067
v 10.726509 1.941600 -14.505067
v 12.208968 1.941600 -12.686646
v 12.208968 -0.058400 -12.686646
v 9.033233 -0.058400 -16.111212
v 9.033233 1.941600 -16.111212
v 10.525282 1.941600 -14.199383
v 11.979655 1.941600 -12.415410
v 11.979655 -0.058400 -12.415410
v 10.525282 -0.058400 -14.199383
v 7.193899 -0.058400 -17.427132
v 7.193898 1.941600 -17.427134
v 8.864083 1.941600 -15.775099
v 8.864083 -0.058400 -15.775099
v 5.238599 -0.058400 -18.431299
v 5.238598 1.941600 -18.431301
v 7.059597 1.941600 -17.066088
v 7.059595 -0.058400 -17.066090
v 3.199318 -0.058400 -19.107288
v 3.199317 1.941600 -19.107288
v 5.141340 1.941600 -18.051231
v 5.141339 -0.058400 -18.051233
v 1.109417 -0.058400 -19.444042
v 1.109416 1.941600 -19.444042
v 3.140693 1.941600 -18.714415
v 3.140693 -0.058400 -18.714415
v -0.996917 -0.058400 -19.436047
v -0.996918 1.941600 -19.436047
v 1.090386 1.941600 -19.044785
v 1.090385 -0.058400 -19.044785
v -3.085227 -0.058400 -19.083435
v -3.085227 1.941600 -19.083435
v -0.976043 1.941600 -19.036942
v -0.976043 -0.058400 -19.036942
v -5.121349 -0.058400 -18.391977
v -5.121350 1.941600 -18.391977
v -3.024789 1.941600 -18.691011
v -3.024790 -0.058400 -18.691011
v -7.071977 -0.058400 -17.372984
v -7.071978 1.941600 -17.372982
v -5.022336 1.941600 -18.012653
v -5.022337 -0.058400 -18.012653
v -8.905201 -0.058400 -16.043123
v -8.905203 1.941600 -16.043121
v -6.936010 1.941600 -17.012964
v -6.936010 -0.058400 -17.012964
v -10.591031 -0.058400 -14.424150
v -10.591031 1.941600 -14.424150
v -8.734503 1.941600 -15.708300
v -8.734504 -0.058400 -15.708298
v -12.101890 -0.058400 -12.542550
v -12.101890 1.941600 -12.542550
v -10.388394 1.941600 -14.119997
v -10.388394 -0.058400 -14.119997
v -12.317127 -0.058400 -12.194428
v -12.317127 1.941600 -12.194428
v -11.870631 1.941600 -12.274046
v -11.870631 -0.058400 -12.274046
v -12.317127 1.941600 -11.551888
v -12.317127 -0.058400 -11.551888
vt 1.000000 1.000000
vt 0.000000 1.000000
vt 1.000000 0.000000
vt 0.000000 0.000000
vt 0.250467 0.476714
vt 0.276067 0.482375
vt 0.251558 0.456491
vt 0.275210 0.487469
vt 0.276695 0.462285
vt 0.250205 0.482008
vt 0.275516 0.477828
vt 0.273975 0.546342
vt 0.247013 0.541245
vt 0.273359 0.608152
vt 0.243456 0.603499
vt 0.273556 0.672062
vt 0.239202 0.667916
vt 0.275013 0.737221
vt 0.233620 0.733596
vt 0.278823 0.802883
vt 0.225282 0.799707
vt 0.288301 0.868346
vt 0.210041 0.865343
vt 0.319223 0.931989
vt 0.169438 0.928088
vt 0.526038 0.972381
vt 0.979425 0.964435
vt 1.000000 0.931989
vt 0.691594 0.924526
vt 0.821639 0.920287
vt 0.717544 0.861372
vt 0.787414 0.857855
vt 0.726148 0.797969
vt 0.773743 0.794417
vt 0.729864 0.736228
vt 0.766121 0.732498
vt 0.724997 0.792917
vt 0.773042 0.789452
vt 0.728955 0.730951
vt 0.716002 0.856822
vt 0.786225 0.853595
vt 0.689571 0.920643
vt 0.818818 0.917201
vt 0.534829 0.969626
vt 0.970053 0.964025
vt 1.000000 0.931598
vt 1.000000 0.928665
vt 0.291153 0.867134
vt 0.210203 0.864572
vt 0.325233 0.931598
vt 0.280693 0.800514
vt 0.225565 0.797528
vt 0.276431 0.733766
vt 0.233911 0.730172
vt 0.274724 0.667741
vt 0.239484 0.663519
vt 0.274374 0.603263
vt 0.243728 0.598466
vt 0.274893 0.541205
vt 0.247277 0.535926
vt 0.250725 0.472301
vt 1.000000 0.928088
vt 0.765636 0.727209
vt 0.168498 0.928665
vn 0.775072 0.000000 -0.631873
vn 0.763655 0.000000 0.645625
vn 0.850557 0.000000 0.525882
vn 0.000000 -1.000000 0.000000
vn 0.000000 1.000000 0.000000
vn -0.850556 0.000000 -0.525884
vn -0.779740 0.000000 -0.626104
vn -0.692660 -0.000000 -0.721265
vn -0.587190 0.000001 -0.809449
vn -0.463021 -0.000000 -0.886347
vn -0.321560 0.000000 -0.946889
vn -0.166493 -0.000000 -0.986043
vn -0.003796 -0.000000 -0.999993
vn 0.159082 0.000000 -0.987265
vn 0.314647 -0.000001 -0.949209
vn 0.456839 -0.000000 -0.889549
vn 0.581856 0.000000 -0.813292
vn 0.688194 0.000000 -0.725527
vn -0.775072 0.000000 0.631873
vn -0.688193 0.000000 0.725528
vn -0.581857 -0.000001 0.813291
vn -0.456838 -0.000000 0.889550
vn -0.314647 0.000000 0.949209
vn -0.159079 0.000000 0.987266
vn 0.003795 -0.000000 0.999993
vn 0.166492 -0.000000 0.986043
vn 0.321560 -0.000000 0.946889
vn 0.463022 -0.000000 0.886347
vn 0.587190 0.000000 0.809449
vn 0.692660 0.000000 0.721264
vn 0.779739 0.000000 0.626104
vn 0.000000 1.000000 0.000001
vn 0.000000 1.000000 -0.000001
vn -1.000000 0.000000 0.000000
vn 0.775072 0.000000 -0.631874
vn 0.763657 0.000000 0.645623
vn -0.692660 0.000000 -0.721264
vn -0.587192 -0.000000 -0.809447
vn -0.463023 0.000001 -0.886347
vn -0.321558 -0.000000 -0.946890
vn -0.166494 -0.000000 -0.986042
vn 0.314647 0.000000 -0.949209
vn 0.456839 -0.000001 -0.889549
vn 0.581855 -0.000001 -0.813292
vn 0.688193 0.000000 -0.725527
vn -0.581855 0.000000 0.813292
vn -0.314649 -0.000001 0.949208
vn -0.159081 0.000000 0.987266
vn 0.166494 -0.000000 0.986043
vn 0.321558 0.000000 0.946890
vn 0.463021 0.000000 0.886347
vn 0.587192 -0.000000 0.809448
vn 0.692660 0.000001 0.721264
usemtl None
s off
f 1/1/1 2/2/1 4/3/1
f 8/4/2 9/3/2 3/2/2
f 58/5/3 57/6/3 60/7/3
f 10/4/4 1/3/4 9/2/4
f 57/6/5 52/8/5 59/9/5
f 52/8/6 51/10/6 56/11/6
f 48/12/7 47/13/7 52/8/7
f 44/14/8 43/15/8 48/12/8
f 40/16/9 39/17/9 44/14/9
f 36/18/10 35/19/10 40/16/10
f 32/20/11 31/21/11 36/18/11
f 28/22/12 27/23/12 32/20/12
f 24/24/13 23/25/13 28/22/13
f 20/26/14 19/27/14 24/28/14
f 16/29/15 15/30/15 20/26/15
f 12/31/16 11/32/16 16/29/16
f 6/33/17 5/34/17 12/31/17
f 2/35/18 1/36/18 6/33/18
f 7/4/19 10/3/19 8/2/19
f 13/37/20 14/38/20 7/39/20
f 17/40/21 18/41/21 13/37/21
f 21/42/22 22/43/22 17/40/22
f 25/44/23 26/45/23 21/42/23
f 29/46/24 30/47/24 25/44/24
f 33/48/25 34/49/25 29/50/25
f 37/51/26 38/52/26 33/48/26
f 41/53/27 42/54/27 37/51/27
f 45/55/28 46/56/28 41/53/28
f 49/57/29 50/58/29 45/55/29
f 53/59/30 54/60/30 49/57/30
f 57/6/31 58/5/31 53/59/31
f 55/61/4 51/10/4 60/7/4
f 51/10/4 47/13/4 58/5/4
f 47/13/4 43/15/4 54/60/4
f 43/15/4 39/17/4 50/58/4
f 39/17/4 35/19/4 46/56/4
f 35/19/4 31/21/4 42/54/4
f 31/21/4 27/23/4 38/52/4
f 27/23/4 23/25/4 34/49/4
f 30/47/4 23/62/4 26/45/4
f 26/45/4 19/27/4 22/43/4
f 22/43/4 15/30/4 18/41/4
f 18/41/4 11/32/4 14/38/4
f 1/36/4 10/63/4 5/34/4
f 3/4/5 2/3/5 8/2/5
f 2/35/5 6/33/5 7/39/5
f 6/33/5 12/31/5 13/37/5
f 12/31/5 16/29/5 17/40/5
f 16/29/5 20/26/5 21/42/5
f 20/26/32 24/24/32 25/44/32
f 29/50/32 24/24/32 33/48/32
f 33/48/33 28/22/33 37/51/33
f 37/51/5 32/20/5 41/53/5
f 41/53/32 36/18/32 45/55/32
f 45/55/5 40/16/5 49/57/5
f 49/57/32 44/14/32 53/59/32
f 53/59/5 48/12/5 57/6/5
f 55/61/34 60/7/34 56/11/34
f 2/2/35 3/4/35 4/3/35
f 9/3/36 4/1/36 3/2/36
f 57/6/3 59/9/3 60/7/3
f 1/3/4 4/1/4 9/2/4
f 52/8/5 56/11/5 59/9/5
f 51/10/6 55/61/6 56/11/6
f 47/13/7 51/10/7 52/8/7
f 43/15/37 47/13/37 48/12/37
f 39/17/38 43/15/38 44/14/38
f 35/19/39 39/17/39 40/16/39
f 31/21/40 35/19/40 36/18/40
f 27/23/41 31/21/41 32/20/41
f 23/25/13 27/23/13 28/22/13
f 19/27/14 23/62/14 24/28/14
f 15/30/42 19/27/42 20/26/42
f 11/32/43 15/30/43 16/29/43
f 5/34/44 11/32/44 12/31/44
f 1/36/45 5/34/45 6/33/45
f 10/3/19 9/1/19 8/2/19
f 14/38/20 10/63/20 7/39/20
f 18/41/46 14/38/46 13/37/46
f 22/43/22 18/41/22 17/40/22
f 26/45/47 22/43/47 21/42/47
f 30/47/48 26/45/48 25/44/48
f 34/49/25 30/64/25 29/50/25
f 38/52/49 34/49/49 33/48/49
f 42/54/50 38/52/50 37/51/50
f 46/56/51 42/54/51 41/53/51
f 50/58/52 46/56/52 45/55/52
f 54/60/53 50/58/53 49/57/53
f 58/5/31 54/60/31 53/59/31
f 51/10/4 58/5/4 60/7/4
f 47/13/4 54/60/4 58/5/4
f 43/15/4 50/58/4 54/60/4
f 39/17/4 46/56/4 50/58/4
f 35/19/4 42/54/4 46/56/4
f 31/21/4 38/52/4 42/54/4
f 27/23/4 34/49/4 38/52/4
f 23/25/4 30/64/4 34/49/4
f 23/62/4 19/27/4 26/45/4
f 19/27/4 15/30/4 22/43/4
f 15/30/4 11/32/4 18/41/4
f 11/32/4 5/34/4 14/38/4
f 10/63/4 14/38/4 5/34/4
f 2/3/5 7/1/5 8/2/5
f 6/33/5 13/37/5 7/39/5
f 12/31/5 17/40/5 13/37/5
f 16/29/5 21/42/5 17/40/5
f 20/26/33 25/44/33 21/42/33
f 24/24/32 29/50/32 25/44/32
f 24/24/5 28/22/5 33/48/5
f 28/22/32 32/20/32 37/51/32
f 32/20/5 36/18/5 41/53/5
f 36/18/5 40/16/5 45/55/5
f 40/16/5 44/14/5 49/57/5
f 44/14/5 48/12/5 53/59/5
f 48/12/5 52/8/5 57/6/5
f 60/7/34 59/9/34 56/11/34
