# Blender v2.71 (sub 0) OBJ File: 'board.blend'
# www.blender.org
mtllib board.mtl
o Cube
v 6.583477 -0.581448 -4.182728
v 6.583477 -0.581448 4.182729
v -6.583478 -0.581448 4.182728
v -6.583475 -0.581448 -4.182730
v 6.583481 0.581448 -4.182726
v 6.583473 0.581448 4.182731
v -6.583480 0.581448 4.182727
v -6.583477 0.581448 -4.182729
v 6.254303 -0.552376 -3.973592
v -6.254301 -0.552376 -3.973594
v -6.254304 -0.552376 3.973592
v 6.254303 -0.552376 3.973592
v 6.254299 0.581448 3.973595
v 6.254307 0.581448 -3.973590
v -6.254306 0.581448 3.973591
v -6.254303 0.581448 -3.973592
vn -1.000000 -0.000000 0.000000
vn 0.000000 -0.000000 -1.000000
vn 1.000000 0.000000 0.000000
vn -0.000000 -0.000000 1.000000
vn 0.000000 1.000000 0.000000
vn 0.000000 -1.000000 0.000000
usemtl Red
s off
f 9//1 12//1 13//1
f 12//2 11//2 15//2
f 10//3 16//3 15//3
f 14//4 16//4 10//4
f 14//1 9//1 13//1
f 13//2 12//2 15//2
f 11//3 10//3 15//3
f 9//4 14//4 10//4
usemtl Yellow
f 9//5 10//5 11//5
f 12//5 9//5 11//5
usemtl Blue
f 7//5 6//5 13//5
f 5//5 14//5 13//5
f 7//5 15//5 16//5
f 8//5 16//5 14//5
f 15//5 7//5 13//5
f 6//5 5//5 13//5
f 8//5 7//5 16//5
f 5//5 8//5 14//5
usemtl Green
f 1//3 5//3 6//3
f 2//4 6//4 7//4
f 7//1 8//1 4//1
f 1//2 4//2 8//2
f 2//3 1//3 6//3
f 3//4 2//4 7//4
f 3//1 7//1 4//1
f 5//2 1//2 8//2
usemtl Orange
f 1//6 2//6 3//6
f 4//6 1//6 3//6
