# Blender v2.71 (sub 0) OBJ File: ''
# www.blender.org
mtllib ring.mtl
o Cylinder
v 0.000000 -0.001000 -5.215164
v 0.000000 0.001000 -5.215164
v 1.017428 -0.001000 -5.114955
v 1.017428 0.001000 -5.114955
v 1.995757 -0.001000 -4.818183
v 1.995757 0.001000 -4.818183
v 2.897390 -0.001000 -4.336250
v 2.897390 0.001000 -4.336250
v 3.687678 -0.001000 -3.687678
v 3.687678 0.001000 -3.687678
v 4.336250 -0.001000 -2.897389
v 4.336250 0.001000 -2.897389
v 4.818183 -0.001000 -1.995757
v 4.818183 0.001000 -1.995757
v 5.114955 -0.001000 -1.017428
v 5.114955 0.001000 -1.017428
v 5.215164 -0.001000 -0.000000
v 5.215164 0.001000 -0.000000
v 5.114956 -0.001000 1.017427
v 5.114956 0.001000 1.017427
v 4.818183 -0.001000 1.995756
v 4.818183 0.001000 1.995756
v 4.336250 -0.001000 2.897389
v 4.336250 0.001000 2.897389
v 3.687678 -0.001000 3.687678
v 3.687678 0.001000 3.687678
v 2.897389 -0.001000 4.336250
v 2.897389 0.001000 4.336250
v 1.995756 -0.001000 4.818183
v 1.995756 0.001000 4.818183
v 1.017427 -0.001000 5.114956
v 1.017427 0.001000 5.114956
v -0.000002 -0.001000 5.215164
v -0.000002 0.001000 5.215164
v -1.017430 -0.001000 5.114955
v -1.017430 0.001000 5.114955
v -1.995759 -0.001000 4.818182
v -1.995759 0.001000 4.818182
v -2.897392 -0.001000 4.336248
v -2.897392 0.001000 4.336248
v -3.687680 -0.001000 3.687675
v -3.687680 0.001000 3.687675
v -4.336252 -0.001000 2.897387
v -4.336252 0.001000 2.897387
v -4.818185 -0.001000 1.995753
v -4.818185 0.001000 1.995753
v -5.114956 -0.001000 1.017424
v -5.114956 0.001000 1.017424
v -5.215164 -0.001000 -0.000005
v -5.215164 0.001000 -0.000005
v -5.114955 -0.001000 -1.017433
v -5.114955 0.001000 -1.017433
v -4.818181 -0.001000 -1.995762
v -4.818181 0.001000 -1.995762
v -4.336246 -0.001000 -2.897395
v -4.336246 0.001000 -2.897395
v -3.687673 -0.001000 -3.687682
v -3.687673 0.001000 -3.687682
v -2.897384 -0.001000 -4.336254
v -2.897384 0.001000 -4.336254
v -1.995750 -0.001000 -4.818186
v -1.995750 0.001000 -4.818186
v -1.017420 -0.001000 -5.114957
v -1.017420 0.001000 -5.114957
v 0.000000 -0.001000 -3.129098
v 0.000000 0.001000 -3.129098
v 0.610490 -0.001000 -3.068998
v 0.610490 0.001000 -3.068998
v 1.197479 -0.001000 -2.890958
v 1.197479 0.001000 -2.890958
v 1.738457 -0.001000 -2.601799
v 1.738457 0.001000 -2.601799
v 2.212655 -0.001000 -2.212655
v 2.212655 0.001000 -2.212655
v 2.601799 -0.001000 -1.738457
v 2.601799 0.001000 -1.738457
v 2.890958 -0.001000 -1.197479
v 2.890958 0.001000 -1.197479
v 3.068998 -0.001000 -0.610490
v 3.068998 0.001000 -0.610490
v 3.129098 -0.001000 -0.000000
v 3.129098 0.001000 -0.000000
v 3.068998 -0.001000 0.610490
v 3.068998 0.001000 0.610490
v 2.890958 -0.001000 1.197478
v 2.890958 0.001000 1.197478
v 2.601799 -0.001000 1.738457
v 2.601799 0.001000 1.738457
v 2.212655 -0.001000 2.212655
v 2.212655 0.001000 2.212655
v 1.738457 -0.001000 2.601799
v 1.738457 0.001000 2.601799
v 1.197478 -0.001000 2.890959
v 1.197478 0.001000 2.890959
v 0.610489 -0.001000 3.068998
v 0.610489 0.001000 3.068998
v -0.000002 -0.001000 3.129162
v -0.000002 0.001000 3.129162
v -0.610492 -0.001000 3.068998
v -0.610492 0.001000 3.068998
v -1.197481 -0.001000 2.890957
v -1.197481 0.001000 2.890957
v -1.738460 -0.001000 2.601797
v -1.738460 0.001000 2.601797
v -2.212658 -0.001000 2.212653
v -2.212658 0.001000 2.212653
v -2.601801 -0.001000 1.738454
v -2.601801 0.001000 1.738454
v -2.890960 -0.001000 1.197475
v -2.890960 0.001000 1.197475
v -3.068999 -0.001000 0.610486
v -3.068999 0.001000 0.610486
v -3.129162 -0.001000 -0.000005
v -3.129162 0.001000 -0.000005
v -3.068997 -0.001000 -0.610496
v -3.068997 0.001000 -0.610496
v -2.890956 -0.001000 -1.197484
v -2.890956 0.001000 -1.197484
v -2.601795 -0.001000 -1.738463
v -2.601795 0.001000 -1.738463
v -2.212651 -0.001000 -2.212660
v -2.212651 0.001000 -2.212660
v -1.738451 -0.001000 -2.601803
v -1.738451 0.001000 -2.601803
v -1.197472 -0.001000 -2.890961
v -1.197472 0.001000 -2.890961
v -0.610482 -0.001000 -3.069000
v -0.610482 0.001000 -3.069000
vt 0.978706 0.352706
vt 0.998196 0.449194
vt 0.501637 0.510135
vt 0.998504 0.547714
vt 0.499389 0.510551
vt 0.979576 0.644473
vt 0.497122 0.510502
vt 0.942108 0.735734
vt 0.494929 0.509992
vt 0.887522 0.817963
vt 0.492901 0.509044
vt 0.817911 0.887970
vt 0.491122 0.507697
vt 0.735964 0.943042
vt 0.489674 0.506002
vt 0.644849 0.981050
vt 0.488615 0.504032
vt 0.547995 0.999900
vt 0.487974 0.501865
vt 0.449398 0.999499
vt 0.487725 0.499608
vt 0.352838 0.979901
vt 0.487890 0.497341
vt 0.262008 0.941890
vt 0.488465 0.495141
vt 0.180372 0.886952
vt 0.489432 0.493086
vt 0.111024 0.817206
vt 0.490754 0.491247
vt 0.056582 0.735301
vt 0.492377 0.489686
vt 0.019130 0.644372
vt 0.494249 0.488464
vt 0.000100 0.547890
vt 0.496298 0.487621
vt 0.000228 0.449534
vt 0.498442 0.487184
vt 0.019522 0.353089
vt 0.500607 0.487170
vt 0.057241 0.262274
vt 0.502712 0.487576
vt 0.111919 0.180593
vt 0.504674 0.488382
vt 0.181429 0.111187
vt 0.506421 0.489554
vt 0.263080 0.056702
vt 0.507895 0.491048
vt 0.353714 0.019205
vt 0.509032 0.492800
vt 0.449905 0.000100
vt 0.509864 0.495071
vt 0.547970 0.000100
vt 0.510255 0.497452
vt 0.644178 0.019199
vt 0.510196 0.499856
vt 0.734848 0.056670
vt 0.509682 0.502194
vt 0.816511 0.111084
vt 0.508734 0.504380
vt 0.886052 0.180375
vt 0.507394 0.506332
vt 0.940828 0.261949
vt 0.505722 0.507986
vt 0.503776 0.509269
vn 0.098000 0.000000 -0.995200
vn 0.290300 0.000000 -0.956900
vn 0.471400 0.000000 -0.881900
vn 0.634400 0.000000 -0.773000
vn 0.773000 0.000000 -0.634400
vn 0.881900 0.000000 -0.471400
vn 0.956900 0.000000 -0.290300
vn 0.995200 0.000000 -0.098000
vn 0.995200 0.000000 0.098000
vn 0.956900 0.000000 0.290300
vn 0.881900 0.000000 0.471400
vn 0.773000 0.000000 0.634400
vn 0.634400 0.000000 0.773000
vn 0.471400 0.000000 0.881900
vn 0.290300 0.000000 0.956900
vn 0.098000 0.000000 0.995200
vn -0.098000 0.000000 0.995200
vn -0.290300 0.000000 0.956900
vn -0.471400 0.000000 0.881900
vn -0.634400 0.000000 0.773000
vn -0.773000 0.000000 0.634400
vn -0.881900 0.000000 0.471400
vn -0.956900 0.000000 0.290300
vn -0.995200 0.000000 0.098000
vn -0.995200 0.000000 -0.098000
vn -0.956900 0.000000 -0.290300
vn -0.881900 0.000000 -0.471400
vn -0.773000 0.000000 -0.634400
vn -0.634400 0.000000 -0.773000
vn -0.471400 0.000000 -0.881900
vn -0.290300 0.000000 -0.956900
vn -0.098000 0.000000 -0.995200
vn -0.098100 0.000000 -0.995200
vn 0.098100 0.000000 -0.995200
vn 0.957000 0.000000 -0.290300
vn 0.995200 0.000000 -0.098100
vn 0.995200 0.000000 0.098100
vn 0.290300 0.000000 0.957000
vn 0.000000 -1.000000 0.000000
vn 0.000000 1.000000 0.000000
vn -0.290300 0.000000 -0.957000
usemtl None
s off
f 2/1/1 4/2/1 3/3/1
f 4/2/2 6/4/2 5/5/2
f 6/4/3 8/6/3 7/7/3
f 8/6/4 10/8/4 9/9/4
f 10/8/5 12/10/5 11/11/5
f 12/10/6 14/12/6 13/13/6
f 14/12/7 16/14/7 15/15/7
f 16/14/8 18/16/8 17/17/8
f 18/16/9 20/18/9 19/19/9
f 20/18/10 22/20/10 21/21/10
f 22/20/11 24/22/11 23/23/11
f 24/22/12 26/24/12 25/25/12
f 26/24/13 28/26/13 27/27/13
f 28/26/14 30/28/14 29/29/14
f 30/28/15 32/30/15 31/31/15
f 32/30/16 34/32/16 33/33/16
f 34/32/17 36/34/17 35/35/17
f 36/34/18 38/36/18 37/37/18
f 38/36/19 40/38/19 39/39/19
f 40/38/20 42/40/20 41/41/20
f 42/40/21 44/42/21 43/43/21
f 44/42/22 46/44/22 45/45/22
f 46/44/23 48/46/23 47/47/23
f 48/46/24 50/48/24 49/49/24
f 50/48/25 52/50/25 51/51/25
f 52/50/26 54/52/26 53/53/26
f 54/52/27 56/54/27 55/55/27
f 56/54/28 58/56/28 57/57/28
f 58/56/29 60/58/29 59/59/29
f 60/58/30 62/60/30 61/61/30
f 62/60/31 64/62/31 63/63/31
f 64/62/32 2/1/32 1/64/32
f 68/2/17 66/1/17 65/64/17
f 70/4/18 68/2/18 67/3/18
f 72/6/19 70/4/19 69/5/19
f 74/8/20 72/6/20 71/7/20
f 76/10/21 74/8/21 73/9/21
f 78/12/22 76/10/22 75/11/22
f 80/14/23 78/12/23 77/13/23
f 82/16/24 80/14/24 79/15/24
f 84/18/25 82/16/25 81/17/25
f 86/20/26 84/18/26 83/19/26
f 88/22/27 86/20/27 85/21/27
f 90/24/28 88/22/28 87/23/28
f 92/26/29 90/24/29 89/25/29
f 94/28/30 92/26/30 91/27/30
f 96/30/31 94/28/31 93/29/31
f 98/32/33 96/30/33 95/31/33
f 100/34/34 98/32/34 97/33/34
f 102/36/2 100/34/2 99/35/2
f 104/38/3 102/36/3 101/37/3
f 106/40/4 104/38/4 103/39/4
f 108/42/5 106/40/5 105/41/5
f 110/44/6 108/42/6 107/43/6
f 112/46/35 110/44/35 109/45/35
f 114/48/36 112/46/36 111/47/36
f 116/50/37 114/48/37 113/49/37
f 118/52/10 116/50/10 115/51/10
f 120/54/11 118/52/11 117/53/11
f 122/56/12 120/54/12 119/55/12
f 124/58/13 122/56/13 121/57/13
f 126/60/14 124/58/14 123/59/14
f 128/62/38 126/60/38 125/61/38
f 66/1/16 128/62/16 127/63/16
f 3/3/39 67/3/39 65/64/39
f 4/2/40 2/1/40 66/1/40
f 5/5/39 69/5/39 67/3/39
f 6/4/40 4/2/40 68/2/40
f 7/7/39 71/7/39 69/5/39
f 8/6/40 6/4/40 70/4/40
f 9/9/39 73/9/39 71/7/39
f 10/8/40 8/6/40 72/6/40
f 9/9/39 11/11/39 75/11/39
f 10/8/40 74/8/40 76/10/40
f 11/11/39 13/13/39 77/13/39
f 12/10/40 76/10/40 78/12/40
f 13/13/39 15/15/39 79/15/39
f 14/12/40 78/12/40 80/14/40
f 15/15/39 17/17/39 81/17/39
f 16/14/40 80/14/40 82/16/40
f 19/19/39 83/19/39 81/17/39
f 20/18/40 18/16/40 82/16/40
f 21/21/39 85/21/39 83/19/39
f 22/20/40 20/18/40 84/18/40
f 23/23/39 87/23/39 85/21/39
f 24/22/40 22/20/40 86/20/40
f 25/25/39 89/25/39 87/23/39
f 26/24/40 24/22/40 88/22/40
f 25/25/39 27/27/39 91/27/39
f 26/24/40 90/24/40 92/26/40
f 27/27/39 29/29/39 93/29/39
f 28/26/40 92/26/40 94/28/40
f 29/29/39 31/31/39 95/31/39
f 30/28/40 94/28/40 96/30/40
f 33/33/39 97/33/39 95/31/39
f 34/32/40 32/30/40 96/30/40
f 33/33/39 35/35/39 99/35/39
f 34/32/40 98/32/40 100/34/40
f 37/37/39 101/37/39 99/35/39
f 38/36/40 36/34/40 100/34/40
f 39/39/39 103/39/39 101/37/39
f 38/36/40 102/36/40 104/38/40
f 41/41/39 105/41/39 103/39/39
f 42/40/40 40/38/40 104/38/40
f 41/41/39 43/43/39 107/43/39
f 42/40/40 106/40/40 108/42/40
f 43/43/39 45/45/39 109/45/39
f 44/42/40 108/42/40 110/44/40
f 45/45/39 47/47/39 111/47/39
f 46/44/40 110/44/40 112/46/40
f 49/49/39 113/49/39 111/47/39
f 50/48/40 48/46/40 112/46/40
f 49/49/39 51/51/39 115/51/39
f 50/48/40 114/48/40 116/50/40
f 53/53/39 117/53/39 115/51/39
f 54/52/40 52/50/40 116/50/40
f 53/53/39 55/55/39 119/55/39
f 54/52/40 118/52/40 120/54/40
f 57/57/39 121/57/39 119/55/39
f 58/56/40 56/54/40 120/54/40
f 57/57/39 59/59/39 123/59/39
f 58/56/40 122/56/40 124/58/40
f 59/59/39 61/61/39 125/61/39
f 60/58/40 124/58/40 126/60/40
f 61/61/39 63/63/39 127/63/39
f 62/60/40 126/60/40 128/62/40
f 63/63/39 1/64/39 65/64/39
f 64/62/40 128/62/40 66/1/40
f 1/64/1 2/1/1 3/3/1
f 3/3/2 4/2/2 5/5/2
f 5/5/3 6/4/3 7/7/3
f 7/7/4 8/6/4 9/9/4
f 9/9/5 10/8/5 11/11/5
f 11/11/6 12/10/6 13/13/6
f 13/13/7 14/12/7 15/15/7
f 15/15/8 16/14/8 17/17/8
f 17/17/9 18/16/9 19/19/9
f 19/19/10 20/18/10 21/21/10
f 21/21/11 22/20/11 23/23/11
f 23/23/12 24/22/12 25/25/12
f 25/25/13 26/24/13 27/27/13
f 27/27/14 28/26/14 29/29/14
f 29/29/15 30/28/15 31/31/15
f 31/31/16 32/30/16 33/33/16
f 33/33/17 34/32/17 35/35/17
f 35/35/18 36/34/18 37/37/18
f 37/37/19 38/36/19 39/39/19
f 39/39/20 40/38/20 41/41/20
f 41/41/21 42/40/21 43/43/21
f 43/43/22 44/42/22 45/45/22
f 45/45/23 46/44/23 47/47/23
f 47/47/24 48/46/24 49/49/24
f 49/49/25 50/48/25 51/51/25
f 51/51/26 52/50/26 53/53/26
f 53/53/27 54/52/27 55/55/27
f 55/55/28 56/54/28 57/57/28
f 57/57/29 58/56/29 59/59/29
f 59/59/30 60/58/30 61/61/30
f 61/61/31 62/60/31 63/63/31
f 63/63/32 64/62/32 1/64/32
f 67/3/17 68/2/17 65/64/17
f 69/5/18 70/4/18 67/3/18
f 71/7/19 72/6/19 69/5/19
f 73/9/20 74/8/20 71/7/20
f 75/11/21 76/10/21 73/9/21
f 77/13/22 78/12/22 75/11/22
f 79/15/23 80/14/23 77/13/23
f 81/17/24 82/16/24 79/15/24
f 83/19/25 84/18/25 81/17/25
f 85/21/26 86/20/26 83/19/26
f 87/23/27 88/22/27 85/21/27
f 89/25/28 90/24/28 87/23/28
f 91/27/29 92/26/29 89/25/29
f 93/29/30 94/28/30 91/27/30
f 95/31/41 96/30/41 93/29/41
f 97/33/33 98/32/33 95/31/33
f 99/35/34 100/34/34 97/33/34
f 101/37/2 102/36/2 99/35/2
f 103/39/3 104/38/3 101/37/3
f 105/41/4 106/40/4 103/39/4
f 107/43/5 108/42/5 105/41/5
f 109/45/6 110/44/6 107/43/6
f 111/47/35 112/46/35 109/45/35
f 113/49/36 114/48/36 111/47/36
f 115/51/37 116/50/37 113/49/37
f 117/53/10 118/52/10 115/51/10
f 119/55/11 120/54/11 117/53/11
f 121/57/12 122/56/12 119/55/12
f 123/59/13 124/58/13 121/57/13
f 125/61/14 126/60/14 123/59/14
f 127/63/38 128/62/38 125/61/38
f 65/64/16 66/1/16 127/63/16
f 1/64/39 3/3/39 65/64/39
f 68/2/40 4/2/40 66/1/40
f 3/3/39 5/5/39 67/3/39
f 70/4/40 6/4/40 68/2/40
f 5/5/39 7/7/39 69/5/39
f 72/6/40 8/6/40 70/4/40
f 7/7/39 9/9/39 71/7/39
f 74/8/40 10/8/40 72/6/40
f 73/9/39 9/9/39 75/11/39
f 12/10/40 10/8/40 76/10/40
f 75/11/39 11/11/39 77/13/39
f 14/12/40 12/10/40 78/12/40
f 77/13/39 13/13/39 79/15/39
f 16/14/40 14/12/40 80/14/40
f 79/15/39 15/15/39 81/17/39
f 18/16/40 16/14/40 82/16/40
f 17/17/39 19/19/39 81/17/39
f 84/18/40 20/18/40 82/16/40
f 19/19/39 21/21/39 83/19/39
f 86/20/40 22/20/40 84/18/40
f 21/21/39 23/23/39 85/21/39
f 88/22/40 24/22/40 86/20/40
f 23/23/39 25/25/39 87/23/39
f 90/24/40 26/24/40 88/22/40
f 89/25/39 25/25/39 91/27/39
f 28/26/40 26/24/40 92/26/40
f 91/27/39 27/27/39 93/29/39
f 30/28/40 28/26/40 94/28/40
f 93/29/39 29/29/39 95/31/39
f 32/30/40 30/28/40 96/30/40
f 31/31/39 33/33/39 95/31/39
f 98/32/40 34/32/40 96/30/40
f 97/33/39 33/33/39 99/35/39
f 36/34/40 34/32/40 100/34/40
f 35/35/39 37/37/39 99/35/39
f 102/36/40 38/36/40 100/34/40
f 37/37/39 39/39/39 101/37/39
f 40/38/40 38/36/40 104/38/40
f 39/39/39 41/41/39 103/39/39
f 106/40/40 42/40/40 104/38/40
f 105/41/39 41/41/39 107/43/39
f 44/42/40 42/40/40 108/42/40
f 107/43/39 43/43/39 109/45/39
f 46/44/40 44/42/40 110/44/40
f 109/45/39 45/45/39 111/47/39
f 48/46/40 46/44/40 112/46/40
f 47/47/39 49/49/39 111/47/39
f 114/48/40 50/48/40 112/46/40
f 113/49/39 49/49/39 115/51/39
f 52/50/40 50/48/40 116/50/40
f 51/51/39 53/53/39 115/51/39
f 118/52/40 54/52/40 116/50/40
f 117/53/39 53/53/39 119/55/39
f 56/54/40 54/52/40 120/54/40
f 55/55/39 57/57/39 119/55/39
f 122/56/40 58/56/40 120/54/40
f 121/57/39 57/57/39 123/59/39
f 60/58/40 58/56/40 124/58/40
f 123/59/39 59/59/39 125/61/39
f 62/60/40 60/58/40 126/60/40
f 125/61/39 61/61/39 127/63/39
f 64/62/40 62/60/40 128/62/40
f 127/63/39 63/63/39 65/64/39
f 2/1/40 64/62/40 66/1/40
