# Blender v2.71 (sub 0) OBJ File: ''
# www.blender.org
mtllib bottom.mtl
o Cube
v 12.000000 -0.300000 -19.999998
v 12.000000 -0.300000 20.000000
v -12.000002 -0.300000 19.999996
v -11.999996 -0.300000 -20.000008
v 12.000006 0.300000 -19.999989
v 11.999992 0.300000 20.000011
v -12.000004 0.300000 19.999992
v -11.999999 0.300000 -20.000000
vt 0.500000 0.000000
vt 0.000000 0.000000
vt 0.000000 0.500000
vt 0.000000 1.000000
vt 0.500000 0.500000
vt 0.500000 1.000000
vt 1.000000 1.000000
vt 1.000000 0.500000
vn 0.000000 -1.000000 0.000000
vn 0.000000 1.000000 0.000000
vn 1.000000 -0.000000 0.000000
vn -0.000000 -0.000000 1.000000
vn -1.000000 -0.000000 -0.000000
vn 0.000000 0.000000 -1.000000
usemtl Material
s off
f 2/1/1 3/2/1 4/3/1
f 8/4/2 7/3/2 6/5/2
f 1/5/3 5/6/3 6/4/3
f 2/5/4 6/6/4 7/4/4
f 7/6/5 8/7/5 4/8/5
f 1/1/6 4/2/6 8/3/6
f 1/5/1 2/1/1 4/3/1
f 5/6/2 8/4/2 6/5/2
f 2/3/3 1/5/3 6/4/3
f 3/3/4 2/5/4 7/4/4
f 3/5/5 7/6/5 4/8/5
f 5/5/6 1/1/6 8/3/6
